<svg id="Layer_1" data-name="Layer 1" xmlns="http://www.w3.org/2000/svg" viewBox="0 0 399.52 129.57"><title>regresir logo</title><text transform="translate(139.99 73.72)" style="font-size:66px;fill:#213264;font-family:SegoeUI-Light, Segoe UI;font-weight:300">RegReSir</text><text transform="translate(143.02 90.81)" style="font-size:12px;fill:#e33;font-family:SegoeUI-Bold, Segoe UI;font-weight:700"><tspan xml:space="preserve" style="letter-spacing:2.72412109375em">			</tspan><tspan x="108" y="0" xml:space="preserve">     </tspan><tspan x="0" y="0" style="letter-spacing:-0.02490234375em">R</tspan><tspan x="132.09" y="0">egional </tspan><tspan x="177.19" y="0" style="letter-spacing:-0.02490234375em">R</tspan><tspan x="184.73" y="0">esilience</tspan><tspan x="0" y="14.4" xml:space="preserve">  and Sustainable Indust</tspan><tspan x="134.95" y="14.4" style="letter-spacing:0.00390625em">r</tspan><tspan x="139.78" y="14.4">ial </tspan><tspan x="156.36" y="14.4" style="letter-spacing:-0.02490234375em">R</tspan><tspan x="163.9" y="14.4">est</tspan><tspan x="180.34" y="14.4" style="letter-spacing:0.0029296875em">r</tspan><tspan x="185.15" y="14.4">uctu</tspan><tspan x="210.1" y="14.4" style="letter-spacing:0.00390625em">r</tspan><tspan x="214.92" y="14.4">ing</tspan></text><path d="M98.5,155.62V120.07a52,52,0,0,0-25.58,35.55Z" transform="translate(-60.57 -102.69)" style="fill:#213164;fill-rule:evenodd"/><path d="M113.65,155.62h61.27a51.94,51.94,0,0,0-51-42.2,52.6,52.6,0,0,0-10.27,1Z" transform="translate(-60.57 -102.69)" style="fill:#213164;fill-rule:evenodd"/><path d="M98.5,170.78H72.28A51.94,51.94,0,0,0,98.5,210.62Z" transform="translate(-60.57 -102.69)" style="fill:#213164;fill-rule:evenodd"/><path d="M113.65,170.78v45.47a52.6,52.6,0,0,0,10.27,1,51.93,51.93,0,0,0,51.64-46.49Z" transform="translate(-60.57 -102.69)" style="fill:#213164;fill-rule:evenodd"/><path d="M101.76,106.8c.2-.28,1.42-1,1.77-.88a5.51,5.51,0,0,1,2.17,1.77c.12.17-.18,1-.21,1.17-.07.41.14.85,0,1.25s-.65.74-.82,1.27c-.08.25.1.56,0,.81s-.72.37-.83.73c-.21.67.22,1.63,0,2.31-.07.22.15.53.08.75s.23.67.34.9c.38.88.89,1.71,1.29,2.47,0,.11.61.65.56.72a5.56,5.56,0,0,1-.85,1.09c-.33.25-1,0-1.31.33s-.23.76-.41,1-.74,0-.88,0-.79.29-.8.28c-.61-.43-.55-1.54-.88-2.17a25.33,25.33,0,0,0-1.78-3.19c-.39-.54-1.13-.22-1.59-.55a5.37,5.37,0,0,0-.76-.38c-.56-.25-.78-1.12-1.2-1.42a2.08,2.08,0,0,0-.79-.17c-.25,0-.35-.34-.52-.46a2.51,2.51,0,0,0-.79-.31c-.22-.07-.58.19-.71.15s-.33-1.09-.53-1.23-.81.11-1,0,.14-.87.2-1c.12-.32.34-1.33.56-1.49a7.8,7.8,0,0,1,1.51-.44c.53-.2,1.34-.18,1.77-.58s.44-1,.79-1.49.88-.61,1.18-.82a2.54,2.54,0,0,1,1,0c.13,0,.1.23.19.26.29.09,1-.88,1.19-1,.49-.25.88.32,1.26.49.18.09.6-.06.79-.09" transform="translate(-60.57 -102.69)" style="fill:#ee3232;fill-rule:evenodd"/><path d="M176.2,200.59c.33-.12,1.32-1.11,1.3-1.48a5.42,5.42,0,0,0-1.16-2.54c-.13-.16-1-.08-1.19-.1-.41,0-.78-.35-1.2-.34s-.88.45-1.44.47c-.26,0-.51-.24-.77-.22s-.55.6-.92.62c-.7,0-1.52-.63-2.23-.6-.23,0-.47-.29-.71-.28s-.58-.39-.78-.55c-.75-.59-1.43-1.29-2.07-1.87-.09-.08-.46-.75-.55-.72a5.69,5.69,0,0,0-1.27.54c-.32.26-.23,1-.65,1.18s-.8,0-1.09.14-.16.72-.23.86-.47.68-.47.7c.27.69,1.35.91,1.88,1.39a26.44,26.44,0,0,1,2.64,2.53c.42.52-.08,1.16.12,1.69a5,5,0,0,1,.18.83c.11.6.89,1,1.08,1.51a2.16,2.16,0,0,1,0,.81c0,.25.24.42.32.62a2.58,2.58,0,0,1,.1.84c0,.23-.33.52-.33.65,0,.29,1,.6,1.06.83s-.32.75-.22,1,.88.08,1,.06a6,6,0,0,0,1.58-.16c.31-.26.55-1,.8-1.35s.51-1.25,1-1.57,1.08-.17,1.64-.38c.39-.15.8-.7,1.09-.94a2.74,2.74,0,0,0,.27-.95c0-.14-.2-.16-.21-.25,0-.3,1.09-.7,1.28-.9.37-.4-.09-.93-.16-1.34,0-.2.21-.56.29-.75" transform="translate(-60.57 -102.69)" style="fill:#ee3232;fill-rule:evenodd"/><path d="M64.7,146.62c-.09.34.3.72.47,1,.34.51,1.53,2.53,2.25,2.17s.66-.92,1.13-1.39c.14-.14,1,.43,1.08.48.41.13,1-.42,1.52-.18.19.1.75.38.95.31.56-.19.87-1.22,1.65-1,.94.32,2.12.15,2.91.78.23.19.79.82,1.12.65s.41-.93.65-1.3c.36-.53,1.13-.82,1.56-1.25s-.48-1.12-.26-1.56c.11-.22.35-.83.22-1.09s-.41-.15-.56-.21c-.66-.27-1.53,0-2.13-.26s-.85-1.12-1.34-1.61-1.28-.41-1.6-.91a7.61,7.61,0,0,1-.91-1.77c-.29-.86.93-.92.6-1.91s-2.49-2.63-3.73-2.21c-.73.24-.86.64-1,1.34,0,.17.1.52,0,.65-.37.38-.84.14-1.34.26a4.19,4.19,0,0,0-2.26,2,2.36,2.36,0,0,0,.09,1.08c.12.12,1.34-.21,1,.39-.4.8-1.79.49-2.47,1.17a1.17,1.17,0,0,0-.09,1.3c.27.27.74.14.91.48S64.7,146.62,64.7,146.62Z" transform="translate(-60.57 -102.69)" style="fill:#ee3232;fill-rule:evenodd"/><path d="M90.42,203c.1,0-1.28.85-1.56,1.06a26.79,26.79,0,0,0-2.77,2.54c-.11.11.32,1.17.37,1.34s-.08.61.05.87c.49,1,1.82,3.77-.09,4.25-1,.24-1.89-.83-2.63-1.2-1.45-.72-3.31.15-4.8-.6-.83-.42,0-.77-.37-1.43-.19-.38-.51-.65-.69-1s.27-.84.09-1.2-.69-.77-.83-1.2c-.1-.28-.88-1.23-.74-1.52s.68-.29.92-.41c.46-.23.46-1,.65-1.34.43-.87-.36-1.65-.83-2.12a4.7,4.7,0,0,1-.55-1.2c-.06-.11-.54-.58-.37-.74.65-.66,1.87-.53,2.72-.74.42-.1.76-.52,1.11-.78s.8-.43,1.1-.28.45.8.56,1,.65.42.92.6c.65.44,1,1.31,1.8,1.57,1.73.58,2.84-2.6,4.29-1.15.17.17.69,0,.88.23a9.54,9.54,0,0,1,1,2.54c.1.29.48.27.6.5a.46.46,0,0,1-.18.51A2.25,2.25,0,0,1,90.42,203Z" transform="translate(-60.57 -102.69)" style="fill:#ee3232;fill-rule:evenodd"/><path d="M175.48,177.1c-.81-.2-2.42-.12-3-.69a2.61,2.61,0,0,0-.86-.51c-.65,0-1.09,1.89-1.32,2.35a2.78,2.78,0,0,0,0,.91c0,.22-.17.68,0,.92s.62.46.85.57.6.6,1,.75a7.24,7.24,0,0,1,2.4.86c.16.16.6,0,.75-.06.39-.2.95.35,1.09.63.35.72-.52,1-.29,1.49a8,8,0,0,0,1.49,1.89c.37.37.33,1.13.69,1.49.17.17-.12,1-.18,1.09-.18.36.26.74.35.92.28.55,2,1.86,2.69,1.2.18-.17.06-.64.17-.86.27-.53.48-1.12.75-1.66.14-.28.64-.36.8-.69s0-.62.12-.86c.36-.73.8-1.66,1.14-2.35.26-.52,1.42-.23,1.66-1,.46-1.37-.38-3.46.58-4.41.36-.37-.89-1.39-1-1.67-.51-1.54.1-2.9-1.66-3.78s-2.6,1.51-3.32,2.24c-.3.29-.95-.43-1.21-.17-.48.48-1.31,1.19-1.89,1.77" transform="translate(-60.57 -102.69)" style="fill:#ee3232;fill-rule:evenodd"/><path d="M171.23,151.7c.44.12.8-.29,1.14-.46.95-.47,1.88-1.09,3-.52a5,5,0,0,1,1.09.58c.18.18.87,0,1.09.23,1,1,1.45,2.07,2.69,2.69a3.48,3.48,0,0,1,.63-.23c.3,0,.87.2,1.15.06,1-.5.43-1.21.86-2.06a11.93,11.93,0,0,0,.74-2.41c0-.19-.13-.9,0-1,.89-.89-1-1.23-1.47-2.77-.14-.43.16-2.1-.3-2.56-1.22-1.22-2.08-3-4.19-3a2.33,2.33,0,0,0-1.6.34c-.14.14-.06.71-.06.92,0,.78.43,2.1-.11,2.64s-1.73.24-2.29.8-.74,1.75-1.55,2.29a8.28,8.28,0,0,0-1.49,1.2c-.19.2-.77,0-.92.35a2.28,2.28,0,0,0,.29,1.94,6.36,6.36,0,0,1,.51.81" transform="translate(-60.57 -102.69)" style="fill:#ee3232;fill-rule:evenodd"/><path d="M121.78,116.93c.25-.39-.06-.85-.13-1.22-.2-1-.54-2.1.33-3.06a5.21,5.21,0,0,1,.84-.89c.23-.13.25-.84.52-1,1.21-.68,2.39-.83,3.32-1.86a3.49,3.49,0,0,1,0-.67c.08-.29.42-.78.37-1.09-.21-1.08-1-.74-1.76-1.38a11.62,11.62,0,0,0-2.11-1.37c-.17-.1-.9-.11-1-.28-.62-1.1-2.35-1.17-3.3-1-.35.07-.78-.21-1.15-.14-.86.16-.59,1.07-1.17,1.4-1.49.84-3.43-.39-4,1.63a8.76,8.76,0,0,0-.1,3.22c.1.17.67.25.87.31.74.21,2.13.16,2.5.82s-.23,1.73.16,2.42c.48.86,1.48,1.18,1.78,2.11a8.3,8.3,0,0,0,.76,1.76c.13.24-.17.75.08,1a2.3,2.3,0,0,0,2,.25,6.78,6.78,0,0,1,.92-.28" transform="translate(-60.57 -102.69)" style="fill:#ee3232;fill-rule:evenodd"/><path d="M164.76,137.42l.86-.86c.57-.57,1.9.84,2.58-.52.38-.75,1.72-2,2.92-1.43.71.36,1.13,1,1.89,1.15s1.45-.59,2-.35c.35.18,1.15,1.26,1.83.58.13-.13.2-.38.35-.52.81-.81-.17-2.12-.52-2.81-.25-.49-.17-1.26-.4-1.72s-.71-.38-.86-.68c-.27-.54.19-1.65-.23-2.07-.19-.19-.36-.66-.63-.8-.48-.24-1.12-.32-1.49-.69-.1-.1-.08-.79-.17-1-.25-.49-.81-.81-1.09-1.09-.57-.57-1.53-.42-2.18-.74-.44-.22-1-1.21-1.31-1.49s-.69.23-.81.28a4.87,4.87,0,0,0-2.23,1.78c-.17.34.35,1,.51,1.32a11.26,11.26,0,0,1-.22,2.52c-.32.62-1.09,1-1.32,1.66-.3.89.15,2-.23,2.75s-1.83,1.19-2.24,2a1.62,1.62,0,0,0,.06.85c.17.34.68.4.92.64s.36,1.37,1,1.37" transform="translate(-60.57 -102.69)" style="fill:#ee3232;fill-rule:evenodd"/><path d="M134.81,103.83c.12-.12-.34.07-.49.15s-.69,0-1,.11c-.65.33-2.84,1.31-2.35,2.29.13.26.06,1.15.29,1.26.69.35,1.61.24,2,1s0,1.7.4,2.46.94,1,1.37,1.89A5.79,5.79,0,0,1,135,116c-.1.33.16.84,0,1.15-.06.13-.57.92-.34,1.14a4.59,4.59,0,0,0,2,1c.14,0,.73.36.92.17.56-.56,1-1.68,1.6-2.29.41-.41,0-1.56.4-2,.06-.06.49-.29.52-.34.31-.63.08-1.42.4-2.06.57-1.15,2.32-1.51,3.44-2.07.48-.24.69.32,1,.46s1.54-1,1.66-1.2c.31-.61.51-2.24,0-2.75s-1.56-.15-1.83-.69a4.61,4.61,0,0,0-.63-1.09c-.3-.3-.83-.21-1-.63-.33-.65-.4-1.47-1.55-1.09-.54.18-1.79,1.29-2.29,1-.89-.44-1.29-1.53-2.12-1.94-.36-.18-1.17.64-1.32.8" transform="translate(-60.57 -102.69)" style="fill:#ee3232;fill-rule:evenodd"/><path d="M75.15,163.67a5.2,5.2,0,0,1-1.35-.82c-.27-.27-1.08.05-1.41-.12-.68-.34-1.32-.27-1.94-.59-1.17-.58-1.3-1.94-1.77-2.88-.24-.47-.62-.61-.82-1s-.14-.78-.41-1c-.66-.66-1.53-.38-2.41-.83-.19-.09-.24.54-.29.65a13.29,13.29,0,0,1-1,1.76c-.55.55-1.8.89-2.29,1.88-.33.66.45,1.39.17,1.94a5.93,5.93,0,0,1-1,.94c-.3.31.57,2.19.65,2.53.15.61-.57,1.15-.23,1.82.18.37.67.58.82.88.52,1,.63,2.2,1.76,2.76.25.13.87.66,1.18.36a24.73,24.73,0,0,1,1.64-2.06c.28-.14,2-.36,2.06-.59.23-.47.1-1.28.35-1.53s1.38,0,1.65,0c1,0,2.24-.82,3.17-.82.2,0,1.28.72,1.53.47C76,166.63,77.12,163.67,75.15,163.67Z" transform="translate(-60.57 -102.69)" style="fill:#ee3232;fill-rule:evenodd"/><path d="M147.23,208.41a5,5,0,0,1,.19,1.58c0,.37.71.81.78,1.18.16.74.6,1.19.74,1.88.27,1.28-.72,2.22-1.17,3.17-.23.48-.09.87-.27,1.26s-.53.6-.58,1c-.11.93.65,1.43.84,2.4.05.21.58-.14.69-.17a12.57,12.57,0,0,1,2-.3c.77.09,1.8.86,2.89.63.72-.15.82-1.21,1.42-1.34a6.22,6.22,0,0,1,1.35.21c.43.05,1.37-1.8,1.59-2.08.38-.49,1.25-.26,1.57-.94.18-.37,0-.88.19-1.19.49-1.05,1.33-1.86,1.07-3.09,0-.28,0-1.09-.45-1.14s-2.32.12-2.63,0-1.49-1.31-1.73-1.26c-.52.11-1.08.71-1.42.67s-.86-1.08-1-1.29c-.63-.8-2-1.25-2.61-2-.13-.16-.23-1.45-.58-1.49C149.06,206,146,206.87,147.23,208.41Z" transform="translate(-60.57 -102.69)" style="fill:#ee3232;fill-rule:evenodd"/><path d="M66.71,179.08c.14-.05-.32,0-.46,0-.32-.1-.67-.07-.77.24-.37,1.12.09,2.41-.41,3.4-.37.75.38,1.83,0,2.59-.29.59.18,1.28.18,1.82s-.45.72-.3,1.18a7.55,7.55,0,0,0,.94,2c.22.22.19,1,.42,1.24s.69.08.76.12.33.58.47.58.32-.67.35-.76.87-.41,1.06-.47c1.47-.49,3.22.34,4.52-.53.91-.6.36-1.88.94-2.47.24-.23.84.08,1.12-.06.48-.24,2.51-1,2.7-1.17s0-1.17.18-1.47,1-1.75.7-2.06-.78-.6-1.17-1-1.27-.86-1.82-.58c-.24.12-.61.16-.88.29-.77.38-1,1.63-2.12,1.06-.42-.21-.67-1-1.11-1.12a2.49,2.49,0,0,1-1.42-1.06,4.25,4.25,0,0,0-1.7-2.35A2,2,0,0,0,66.71,179.08Z" transform="translate(-60.57 -102.69)" style="fill:#ee3232;fill-rule:evenodd"/><path d="M96.16,213s1.07-1.59,1.39-2.23,2.25-3,3.14-2.54c.37.19.82.5,1.27.73a6.09,6.09,0,0,1,1.69,1.63c.08.12.5.31.42.48-.33.65-.9,1.12-1.21,1.75a14.12,14.12,0,0,0-1,1.75s-.1.82-.1.82h0a9.62,9.62,0,0,0,.64,2.26c.37.74-.19,2,.18,2.71.24.49.78,1.39.48,2a2,2,0,0,1-.9.79c-.36.18-.56.74-.79,1-1,1-2.66-.23-3.74-.66-.67-.27-1.29,0-1.93-.42s.12-.79,0-1a5.28,5.28,0,0,0-1.15-1.27c-.56-.28-2.11.13-2.53-.3-.17-.17,0-.74-.12-.9a6.48,6.48,0,0,1-.78-1.39c-.31-.62-1.47-.68-1.94-1.15,0,0,.06-.58.06-.66,0-1.17.38-1,.85-1.93s1.94.26,2.71-.12c.6-.3.93-.77,1.57-1.09S95.68,213.22,96.16,213Z" transform="translate(-60.57 -102.69)" style="fill:#ee3232;fill-rule:evenodd"/><path d="M135.11,212.42c0,.12.34,1.17.46,1.6.23.78.57,3.14,1.27,3.52,2.32,1.27,3.25,3,5.76,3.47.21,0,.48.83.47,1.05-.06,1.61-2.8,3-3.79,3.95a6.6,6.6,0,0,1-2.16.19c-.19-1.46-1.53-.3-2.23-.43-1-.19-1.86,1.59-2.61,1.18-.44-.25-1.4.05-2,0a8.72,8.72,0,0,1-1.81-1.62c-.78-.83,0-3.33.56-4,.33-.39,1-.35,1.26-.85a10.67,10.67,0,0,0,.86-3.58c0-.46-.84-1.47-.62-1.88s.8-.56,1-.92c.11-.21,0-.62.15-.84s1.54-.8,1.89-1.42S135.11,212.42,135.11,212.42Z" transform="translate(-60.57 -102.69)" style="fill:#ee3232;fill-rule:evenodd"/><path d="M90.62,131.66c-.08-2.18-.31-.55-1.44-1.68a10.51,10.51,0,0,1-1.45-2.36,31.61,31.61,0,0,1,1.07-4.26c.09-.18.34-1.4.15-1.6s-2.42-1.49-2.67-1.74c-1.44-1.44-2.54-2-4.43-1.07-.74.37-2.12,3.24-2.81,3.93-.51.51-3.12,2.25-3.4,3.05-.53,1.53-1.37,2.94-.78,3.73a3.84,3.84,0,0,0,2.37.63c.7-.12.12,1.11.61,1.6a2.33,2.33,0,0,0,1.37.45,24.44,24.44,0,0,0,3.19-1.44c1.76-.88,3.71,1.32,4.89,2.5.54.54,2.25-1.27,2.35-1.36S90.64,132,90.62,131.66Z" transform="translate(-60.57 -102.69)" style="fill:#ee3232;fill-rule:evenodd"/><path d="M116,214.31a5.9,5.9,0,0,1,.61,1.14c.31,1-1.19,3.67.15,4.34s3.48,1.35,4.56,2.44-.52,2.7-.83,3.65c-.16.48.07,1.75-.23,2.05s-1.39.51-1.9.77c-.83.41-2.63-3-3.28-3.28-.41-.2-1.86,1.64-2.43,1.07a4.74,4.74,0,0,0-1.22-.76c-.25-.13-1,.31-1.22.07s-.1-1-.53-1.22c-1.26-.62-2,.17-2.66-1.14-.33-.64,1.06-1.21,1.37-1.67a14.72,14.72,0,0,1,2-2.44c.33-.33,1.12-.36,1.52-.76s-.48-1.4-.15-2a15.89,15.89,0,0,1,1.9-3.35c.38-.38,2.11.28,2.29.45S115.79,214.09,116,214.31Z" transform="translate(-60.57 -102.69)" style="fill:#ee3232;fill-rule:evenodd"/><path d="M149.77,124a3.18,3.18,0,0,1-.53-.19.58.58,0,0,1-.14-.58c.1-.29.42-.44.58-.68a14.92,14.92,0,0,0,.9-1.53,1.7,1.7,0,0,0,.08-.87c-.13-.25-.47-.34-.4-.68a3.27,3.27,0,0,1,.51-.91,20.2,20.2,0,0,0,.79-1.89c.25-.49-.19-1-.32-1.41s.06-.7-.08-1-.31-.34-.43-.58c-.4-.79.26-1.63.91-2.06.24-.17,1.38-.69,1.66-.55s.3.62.44.84c.27.4.95.45,1.34.58.91.3,1.56-.86,2.54-.62a2,2,0,0,1,1.26.94c.1.28-.07.76.15,1,.38.38,1.26-.18,1.7,0s.62,1.31,1,1.7c.17.17.92-.2,1.16,0a1,1,0,0,1,.29.87c0,.25-.16.74,0,1s.38,1.36.07,1.66c-.08.08.08.4,0,.47s-.6,0-.72.08-.54.16-.8.25a8.52,8.52,0,0,0-1.19.51c-.31.15-.53.6-.91.8s-1.11-.07-1.52.14-.52,1.11-1.05,1.38a2.77,2.77,0,0,0-.66.61,4.08,4.08,0,0,1-1.08.55,17.42,17.42,0,0,0-1.6,1.19c-.24.17-.27.54-.51.66s-.82-.44-1.26-.29-1.07.6-1.45.21" transform="translate(-60.57 -102.69)" style="fill:#ee3232;fill-rule:evenodd"/><path d="M179.07,160.47c-.49-.24-1.92.57-2.65.69s-1.06.43-1.64.58c-.34.08-1.35-.38-1.52,0-.28.58-.26,1.29-.54,1.85-.1.2-.6.17-.76.33-.39.38,0,1.13.11,1.56a2.78,2.78,0,0,0,.58.86c.14.14.69-.13.83,0,.68.69,1.06.46,2,.15.44-.15,1,.11,1.45.11.56,0,1.65-.1,2,.29.19.19.23.48.4.65s.84-.06,1,.11.4.26.54.4.54.73.4.87-.28.39-.18.58c.24.48,1,.35,1.37.54.62.31.54.62,1,1.05a.8.8,0,0,0,.55,0,9.6,9.6,0,0,0,1.63-2.9c.2-.41,1.19-.11,1.45-.61s-.44-.81-.26-1.16.61-.78.84-1.23-.6-1-.4-1.2c.42-.42-1.15-1.58-.86-2.16a5.15,5.15,0,0,0-.45-2.08c-.13-.07-.3-.25-.43-.25s-.44.19-.55.14c-.29-.15-.26-.45-.47-.65s-.64-.21-.87-.36c-1-.65-1.49-1.73-2.61-2.29a1.09,1.09,0,0,0-.54.11,8.47,8.47,0,0,0-1.45,2.43c-.13.4.44.69.44,1.09,0,.15-.42.53-.43.54" transform="translate(-60.57 -102.69)" style="fill:#ee3232;fill-rule:evenodd"/><path d="M112.13,155.09a5.17,5.17,0,0,1-.5-1.05c.06-.5-.72-1.3-.52-1.74.07-.14.25-1.07-.15-1.26-.15-.07-.36.15-.51.08-.35-.17-.5-1.06-.79-1.34a4.1,4.1,0,0,0-.91-.67c-.25-.12-.76-.07-1-.29-.51-.48,0-.84.06-1.41.1-.83-.21-2.28-.95-2.63-.32-.14-.82.26-1.11.37s-1.21-.11-1.5.2c-.57.6,0,1.72-.52,2.27-.25.26-.41,1.7-.95,2.28-.26.28-.72.17-1,.4a4.07,4.07,0,0,0-1.17,1.13c-.17.35.13,1.14.17,1.52,0,.16.18.49,0,.64s-.75-.26-1.19,0a2.1,2.1,0,0,0-.8,1.1c-.08.18-.54.2-.63.38s-.32.45-.4.61.41.6.49.71c.31.38.73.75,1,1.13s.32.68.74.73c.72.09,1.52-.66,2.21-.58.16,0,.34.3.44.35s.48-.2.65-.12l.51.23c.29.14.77-.33,1.13-.29a4,4,0,0,1,1.07.3c.33.15.91-.06,1.23,0s.07.38.26.4c.53.06.61-.92,1-.87.22,0,.18.42.38.51.65.3,1.47,0,2.12.31,0,0,.22-.25.25-.28s.24,0,.29-.15c.16-.35.48-.85.62-1.15s.55-.46.54-.85C112.77,155.49,112.21,155.32,112.13,155.09Z" transform="translate(-60.57 -102.69)" style="fill:#ee3232;fill-rule:evenodd"/><path d="M123.55,169.16a1.76,1.76,0,0,1,.62.28c.37.18,1-.25,1.35.06s.31.63.59.9c.06.06,0,.32,0,.39s.53.15.73.21c.38.13,1.33.94,1.71.74.14-.07.19-.19.32-.26s.32-.47.5-.65a3.89,3.89,0,0,0,1-1.25c.07-.24-.16-.6-.23-.79-.16-.47-1.1-.86-1.36-1.11a.94.94,0,0,1,0-.47c.19-.19,1,0,1.05-.16a2.86,2.86,0,0,0,.09-1.67c-.14-.14-.64.13-.8,0s0-.38,0-.48c-.17-.33.33-.74.43-1a2.19,2.19,0,0,0,0-1.05,6,6,0,0,0-1.39-1.58c-.11-.11.4-.47.46-.51a2.82,2.82,0,0,0,.79-1,1.29,1.29,0,0,0-.28-1.59c-.17-.18.3-.63.39-.77.27-.42,0-.62-.3-.83s-.54,0-.8,0a3.61,3.61,0,0,0-1,.3c-.51.18-1.13,0-1.48.49-.21.32-.63.64-.79,1s.43.44.27.61-.75.09-1.09.27a8,8,0,0,1-1.4.77,3.57,3.57,0,0,0-1,.27,4.78,4.78,0,0,0-.72.66c-.28.29-.87.43-1.08.85,0,.11-.19.64-.24.69s-.54.08-.76.16a4.56,4.56,0,0,0-1.48.85c-.28.29-.78-.13-1,.34-.14.3.09.9.09,1.23s-.52,1-.31,1.27,1.12.5,1.53.56a3.38,3.38,0,0,0,1.45,0,1.6,1.6,0,0,1,.43-.11c.17.16,0,.5.16.69.26.39,1.11.43,1.46.59.14.07-.07.44.07.51s.75.1.84.28.05.41.15.51S123.31,169.16,123.55,169.16Z" transform="translate(-60.57 -102.69)" style="fill:#ee3232;fill-rule:evenodd"/><path d="M146.34,171.79a5,5,0,0,0,.17.51c.1.36.32.82,0,1.22a6.47,6.47,0,0,1-1.37,1.27c-.11.07,0,.88,0,1,0,.35-.27.75-.23,1.1s.27.85,0,1.15-1.22.26-1.54.27-1,.08-1.26-.15,0-.61-.16-.85-.33-.37-.42-.61-.2-1.16-.55-1.44c-.12-.1-.22-.22-.38-.34s-.72,0-.9-.12a4.83,4.83,0,0,1-1.06-1.11c-.1-.15,0-.53-.14-.77a8.46,8.46,0,0,1-1.22-2.81c-.12-.66-.9-1.21-.34-1.92a4.48,4.48,0,0,0,.39-.44c.07-.11,0-.41.06-.47.3-.19.84-.27,1.18-.49.08-.05.23-.43.24-.43.32-.09,1.19.35,1.44.19a2.47,2.47,0,0,1,1.39-.63c.51-.06,1,.07,1.51,0,.29,0,.54.26.8.09s.25-.38.39-.47a7.35,7.35,0,0,1,2-.78c.15,0,.62-.75.73-.66a4.74,4.74,0,0,1,.82,1.58c.14.34.51.62.61,1s-.21.28-.28.42c-.15.33-.86,1.12-.76,1.51.15.55,1.14.75,1.26,1.23.08.31-.32.39-.48.53s-.36.6-.56.73S146.34,171.79,146.34,171.79Z" transform="translate(-60.57 -102.69)" style="fill:#ee3232;fill-rule:evenodd"/><path d="M130.3,138.23a6.46,6.46,0,0,0-1,.5c-.21.17-.12.57-.24.76s-.71.1-.86.33c-.45.69-.08,1.87.08,2.65a6.34,6.34,0,0,1-.36,3.19c-.11.43.86.63.63,1.2a10.32,10.32,0,0,0-.71,2.75c0,.2-.13.43,0,.63a2.07,2.07,0,0,0,.72.55c.5.33,1.52,1.22,2.12.92s.85-1,1.36-1.25c.15-.09.33-.47.54-.41s1,1.23,1.38.89.4-1.22.51-1.63a3.28,3.28,0,0,1,.86-1.15c.27-.27,1,.18,1.19-.14a1.85,1.85,0,0,1,.72-.63c.17-.1.5-.07.62-.25a2.91,2.91,0,0,1,.5-.77c.34-.27,1.61,0,1.84-.39.11-.17,0-.58,0-.78.05-.46.22-.84.24-1.31a1.37,1.37,0,0,0-1.18-1.2c-.92,0-1.69.67-2.38-.2-.28-.36-.29-1-.53-1.44A4.71,4.71,0,0,0,135,140c-.05,0,0-.2-.09-.24s-.56.09-.73,0a6.26,6.26,0,0,1-1-.38c-.15-.09-.13-.33-.27-.42s-.67,0-.87-.07C131.37,138.74,130.94,138.1,130.3,138.23Z" transform="translate(-60.57 -102.69)" style="fill:#ee3232;fill-rule:evenodd"/><path d="M116.66,186.5a2.83,2.83,0,0,1,.53-.72c.21-.16-.1-1.3,0-1.5s.93.24,1.08,0c.46-.68-.11-1.66-.27-2.45a5.47,5.47,0,0,1,.18-3c.12-.43-.39-.65-.16-1.21a8.72,8.72,0,0,0,.53-2.51c0-.2-.09-.2-.2-.41s0-.86-.25-1a2.58,2.58,0,0,0-1.41-.46c-.28,0-.5-.59-.7-.49-.57.27-.87.94-1.38,1.23-.16.09-.34.46-.55.41s-1.17-.34-1.59,0-.19.31-.3.71a3.37,3.37,0,0,1-.89,1.14c-.27.27-1-.19-1.19.12a1.81,1.81,0,0,1-.73.63c-.17.1-.5.06-.62.23a3,3,0,0,1-.51.77c-.35.27-1.61,0-1.85.36-.11.17,0,.58,0,.79-.06.45,0,1.29,0,1.76s1.1.73,1.62.75c.92,0,1-.18,1.69.69a7.23,7.23,0,0,1,.51,1c.25.44,1.06,0,1.4.18.05,0,1.33.69,1.49.73s.19.69.33.78a8.27,8.27,0,0,0,1.13.51C115.15,185.74,116,186.62,116.66,186.5Z" transform="translate(-60.57 -102.69)" style="fill:#ee3232;fill-rule:evenodd"/><path d="M136.6,188.07a.66.66,0,0,1,.19-.09c.37-.08.7-.12.8.37,0,.07,0,.23,0,.39a5.11,5.11,0,0,1,.48.45,1.28,1.28,0,0,1,1.07.91,3.45,3.45,0,0,1,.12.43c.38.29,1-.3,1.25,0a6.4,6.4,0,0,0,2.55,1.95c.75.27,2,.57,2.31,1.31.12.25-.28.67-.17.9s.49.34.52.6a2.94,2.94,0,0,1,0,.65.86.86,0,0,1,.38.07c.19.09.61.17.73.4A3.91,3.91,0,0,1,147,198c0,.26.18.59.11.82s0,.27-.05.41c-.13.41-1.37.5-1.73.69-.18.09-.47.37-.66.37s-.22-.26-.31-.25c-.38,0-.69-.23-1.06-.22s-.61.78-1,.91a1.79,1.79,0,0,0-.64.24c-.17.17-.48.72-.61.72s-.32-.2-.46-.25-.61.33-.79.4-.27-.36-.42-.3c-.36.12-1,.69-1.45.6-.22,0-.37-.38-.59-.37a1.53,1.53,0,0,0-.23.38c-.11.34-.75.85-1,1s-1,.78-1.48.69-.44-.89-.68-1.12-.82-.49-.93-.81c-.17-.49.48-.55.47-.95a4.72,4.72,0,0,1,.44-1.65c.1-.21.43-.41.43-.65,0-.07-.28-.55-.32-.66-.13-.37.08-.79.15-1.15a1.92,1.92,0,0,0-.11-.27c-.06-.13,0-.27.12-.41a2.89,2.89,0,0,1,0-.5,1.56,1.56,0,0,1,.25-.5,2.39,2.39,0,0,0-.45-1c-.29-.3-1.07-.84-1.13-1.28s1.25-.49,1.48-.71-.07-.5-.07-.68c0-.59-.42-1.18-.37-1.81s1.35-1.08,1.89-1.34A2.92,2.92,0,0,1,136.6,188.07Z" transform="translate(-60.57 -102.69)" style="fill:#ee3232;fill-rule:evenodd"/><path d="M126.29,122.54a3,3,0,0,1-.5.21c-.49-.06-.64-.79-1-.84a14.28,14.28,0,0,1-1.79-.18c-.17,0-.46-.22-.63,0a4.68,4.68,0,0,0-.91,2.12c-.11.79,1.5,1.14,1.58,2,.06.68-.65,1-.74,1.64a1.27,1.27,0,0,0,.49.86c.1.05.34-.19.42-.22a2.49,2.49,0,0,1,1.23-.12c.17.09.06.46.06.63s.27.47.24.69a2.33,2.33,0,0,0,.21,1.27c.43.41,1,.45,1.44.84.25.24-.52.76-.56,1-.08.61.33,1.32.33,2a3.62,3.62,0,0,0,0,.66c.68.32,2-.18,2.85-.19s1.07-1.86,1.06-2.47c0-.26-.17-.62,0-.82.5-.51,1.68-.33,2.28-.94.37-.38.32-1.12.39-1.63,0-.32.47-.33.58-.55a2.38,2.38,0,0,0,.11-.69c.06-.47.51-.93.69-1.31.32-.66,1.1-.55,1.3-1.34a3,3,0,0,0-.34-1.64A4.2,4.2,0,0,0,135,123c-.35-.18-.85-.1-1.25-.3s-.42-.57-.66-.8-.76-.13-1.06-.17a11.65,11.65,0,0,0-1.91-.42c-.53,0-.35.64-.73.64-.62,0-1.31-.38-1.92,0C127.21,122.16,126.77,122.77,126.29,122.54Z" transform="translate(-60.57 -102.69)" style="fill:#ee3232;fill-rule:evenodd"/><path d="M146.69,141.84a2,2,0,0,1,.54-.14,7.39,7.39,0,0,0,1.15,0c.11,0,.17-.48.23-.56s.35,0,.4,0l.82.21c.16,0,.4-.12.57-.07a3,3,0,0,0,2-.44c.42-.23,1.06.18,1.33,0a5.3,5.3,0,0,0,.82-.71,2.06,2.06,0,0,1,.57-.1,3.13,3.13,0,0,1,1.69.16,1.51,1.51,0,0,0,.54-.1c.32-.06,1.49,0,1.7-.35.32-.47,0-.89,0-1.37,0-.3.51-1.42.17-1.66-.09-.06-.38,0-.52,0a5.66,5.66,0,0,1-1.48-.65c-.14-.06-.48-.09-.56-.19s.21-.43.24-.52c.09-.31.26-.18.49-.35s0-.75-.13-.9c-.7-.91-1.44.65-2,.05a14.06,14.06,0,0,1-1.17-1.7c-.09-.12-.55-.1-.72-.13s-.22-.3-.44-.39-.78-.2-.92-.38.63-.49.36-.84-1.06-.84-1.32-1.31a1.42,1.42,0,0,0-.44-.58c-.15-.1-.49.1-.63.16a7.84,7.84,0,0,1-1.47.45c-.14,0-.46.09-.5.25-.25.86.1,2-.16,2.9-.06.22.75.38.63.8s-.43.49-.85.57c-.16,0-.61.07-.66.23s.14.61,0,.77a4.62,4.62,0,0,0-.77,1.18c-.08.28.29.54.2.88s-.4.26-.46.49-.06.82-.25,1.08-.64.55-.75.92c-.19.68.3.95.68,1.45.11.15,0,.56.2.67A3.91,3.91,0,0,0,146.69,141.84Z" transform="translate(-60.57 -102.69)" style="fill:#ee3232;fill-rule:evenodd"/><path d="M86.41,162.25c.09-.2.18.84.41,1,.43.31,1.78-.55,2.08-.68.79-.35,1.55-.09,2.36-.45.29-.12.48-.4.75-.55.5-.26,1.34-.28,1.46-1,0-.25-.19-.54-.27-.75s-.13-.63-.33-.84c-.59-.62-1.83-.05-2.39-.8-.12-.18,0-.6-.08-.79a7.28,7.28,0,0,0-.49-2c-.34-.63-1.17-.51-1.75-.92-.41-.29-.51-.84-.82-1.26-.16-.22,0-.81-.25-.94a17.48,17.48,0,0,1-2.53-1.11c-.3-.21-1.08.11-1.32-.06-.09-.06-.86-.65-1-.43s-.47.4-.55.65c-.17.58.26,1.28.09,1.86a6,6,0,0,1-.86,1.27c-.38.53,1.13,1.52,1,2.08a3.29,3.29,0,0,1-.45.92c-.13.18-.48-.06-.57.24a16,16,0,0,0-.09,2.49c0,.23-.73.57-1,.73s-.41,1-.52,1.35-.58.71-.81,1c-.1.14,1.07.82,1.23.86.39.12.48.89.88,1.07.84.37,1.27-.48,2-.85.15-.08.44-.36.65-.3.44.13,1.39,1.26,2,.84s.51-1.69.66-2.18C85.92,162.4,86.3,162.5,86.41,162.25Z" transform="translate(-60.57 -102.69)" style="fill:#ee3232;fill-rule:evenodd"/><path d="M94.86,134.4c-.41.27-1.32,1.07-1.35,1.09s.1.39.15.54c.17.52.18,1.71.69,2,.81.41,2-.07,2.83.33.37.18.66,1.4.79,1.81s.38.12.55.29.21.47.36.62.72,0,.94,0a9.59,9.59,0,0,0,2.14-.62c.16-.08.46.18.62.22a7.64,7.64,0,0,1,1.92.83c.15.1.23.31.39.36s.53-.5.66-.69c.23-.35.79-.35,1-.58s.34-.45.47-.58c.32-.32.13-1.06-.14-1.34a2.47,2.47,0,0,1,0-.61c.72-.72-.16-.86-.4-1.56-.18-.54.48-.82.33-1.41-.2-.78-.94-1.38-1.2-2.14-.34-1,.58-1.79.58-2.79,0-.14.18-.35.11-.47-.24-.5-1.62-.71-2.1-.87-.21-.07-.46-.41-.62-.26-.41.41-.51,1.13-1.08,1.42a5.92,5.92,0,0,1-1.78-.48c-.08,0-.46-.3-.54-.14a3.79,3.79,0,0,0,.18,2.36c.06.19.4.71.32.87s-.41.1-.54.07a8.13,8.13,0,0,1-1.59-.29c-.07,0-.5-.2-.55-.15a2.42,2.42,0,0,0-.54,1.31c0,.1,0,.58,0,.65-.42.42-1.34-.63-1.81-.4C95.28,133.9,95.13,134.22,94.86,134.4Z" transform="translate(-60.57 -102.69)" style="fill:#ee3232;fill-rule:evenodd"/><path d="M94,188.09a1,1,0,0,1,.29-.55,10.73,10.73,0,0,0,1.22-.94c.19-.21.51-.13.54-.52a5.35,5.35,0,0,0-.41-1.63c0-.09-.23-.11-.27-.19a1.54,1.54,0,0,1,.19-.44c.28-.24.39.13.72.15a.83.83,0,0,0,.58-.26c.21-.18.31-.82.43-1.08s.18-.67.34-.8.42-.33.38-.43a2.56,2.56,0,0,0-.76-1c-.47-.41-.69-1.43-1.64-1.25s-1.78,1.49-2.53,1.79c-.25.1-.9-.45-1.08-.61s-1-.2-1.35-.26a2.84,2.84,0,0,0-1.54.2c-.31.13-.54.43-.9.45s-.7-.38-1-.41-.62.31-.84.39-.9,0-1.25,0-.51.5-.66.63c-.33.28,0,.88-.3,1.17-.17.14-.72.61-.58,1,0,.12.23.2.27.3s-.26.82-.25,1c0,.42.53.94.78,1.24s.2.67.38.95a9.79,9.79,0,0,0,.73,1.14c.3.35.67-.31,1,0a9.24,9.24,0,0,1,1.14,1.11c.39.46,1.18.39,1.61.77s.15,1,.29,1.34a3.59,3.59,0,0,0,.71,1.1c.15.17,0,.92.13.92a7.57,7.57,0,0,0,2.41-.67c.18-.08.82-.31.8-.6,0-.55-.11-1.15-.15-1.68,0-.2-.16-.71,0-.86s1.09.51,1.36.5.7-.68.53-.88-.09-.38-.21-.52A4.88,4.88,0,0,0,94,188.09Z" transform="translate(-60.57 -102.69)" style="fill:#ee3232;fill-rule:evenodd"/><path d="M108.1,199.68c.06.06-.29,0-.39,0a2.69,2.69,0,0,0-.85,0c-.27.08,0,.54-.17.67s-1.31.57-1.23.83a5,5,0,0,0,1.47,2.13c.54.42,1.16-.29,1.66,0s.32.94.65,1.42c.15.22.44.11.69.25s.49.16.61.08.27-1,.24-1.21c-.08-.6.57-1.09,1-1.21s.16.58.31.69.55.14.7.36c.25.37.35.83.74,1.14s1.26-.45,1.47-.72c0-.06.3-.19.32-.15a5.88,5.88,0,0,0,.57.88c.39.38,1,.27,1.33.55a5.25,5.25,0,0,0,.62.46c.31.17,1,.56,1.31.07.14-.24,0-.68.21-.89.31-.4.86-1.38.52-1.89-.52-.77-1.23-1.36-1.36-2.33-.08-.58,1-1.09.8-1.65a7.13,7.13,0,0,1-.32-1.21c0-.39.46-.8.37-1.15-.18-.65-.1-1.31-.28-2-.13-.45.31-1.05.08-1.39a3.88,3.88,0,0,0-1.35-.81c-.52-.24-1,.3-1.34.4-.23.07-.54-.18-.78-.15a5.21,5.21,0,0,0-2,.54c-.31.21-.78-.39-1.12-.29a2.11,2.11,0,0,0-.72.48c-.65.66-.42,2-1,2.73-.15.19-.68.17-.85.39-.57.75-1.3,1-1.51,2.07a2.14,2.14,0,0,1-.12.64A2.62,2.62,0,0,1,108.1,199.68Z" transform="translate(-60.57 -102.69)" style="fill:#ee3232;fill-rule:evenodd"/><path d="M160.27,178.74a3.35,3.35,0,0,1-.84-.44c-.1-.08-.21-.41-.28-.39-.75.2-1.64.2-2.38.39-.49.13-.72.66-1.2.79-.22,0-.5-.11-.73-.08a2.86,2.86,0,0,0-1.41.74c-.19.32.26.82,0,1.19s-.76.5-1,.82c-.72.91,0,1.73.48,2.48.26.4,1.26.14,1.62.56s.24,1.4.83,1.88,1.34.17,1.73.76a3.34,3.34,0,0,1,.2,1.19c-.09.11-.26.17-.24.4s.33.49.4.75c.17.63.71,1.69,1.47,1.49.43-.11.82-.3,1.23-.41.15,0,.45.09.57-.06a6.09,6.09,0,0,0,.55-1.92c.05-.22.09-.62.26-.73s.17-.19.31-.23c.41-.11.94,1,1.46.09.08-.14.14-.3.21-.44.3-.62-.45-.76-.61-1.17a3.89,3.89,0,0,1-.12-.65c0-.09-.27-.53-.09-.65s.64-.32.92-.51c.1-.06.33.13.44,0s.15-.3.23-.39a1.86,1.86,0,0,0,.13-1.34c0-.08-.24-.55-.13-.62s.53-.38.78-.54.17-.69.34-.9.68-.39.57-.8a5.24,5.24,0,0,0-1.33-2.13c-.06,0-.43.18-.52.19-.5,0-1.09-.22-1.46.25-.13.17-.22.64-.48.71a6.63,6.63,0,0,1-1.93-.33" transform="translate(-60.57 -102.69)" style="fill:#ee3232;fill-rule:evenodd"/><path d="M164.42,154a3.28,3.28,0,0,0-.44.75c-.16.56.47,1.11-.19,1.48-.28.16-.44-.14-.67-.2a9.42,9.42,0,0,0-1.39-.47c-.88-.11-1.12.88-1.71,1.22-1,.58-2.31-.15-3,.88-.15.22.08.75,0,1s-.26,1.58.23,1.91c.16.11.49.08.67.2.5.34,1,.73,1.58,1.1.21.14.55-.06.75.07.5.34.75,1.32,1.13,1.81.68.89,2.27.89,3.13,1.13.58.16.5,1.28,1.1,1.44.25.07.53.07.8.14.11,0,.41-.15.5-.09s.31.74.74.4,1.62-.55,1.76-1-.22-.74-.39-1a4.78,4.78,0,0,1-.69-2,2.49,2.49,0,0,1,.17-.47c.19-.28.73.11,1-.09a1.64,1.64,0,0,0,.07-1.34c-.34-.45-1.08-.45-1.42-1.05s.11-.94.26-1.49c.07-.26-.46-.94-.6-1.18s-.06-.72-.32-.89c-.1-.07-.14-.35-.14-.35l.55.38c.16.1.2-.37.21-.45,0-.3-.28-.71-.2-1s.21-.71.09-.86-.52-.23-.67-.43c-.37-.48-1.32-1.11-2-.71C164.85,153,164.86,153.69,164.42,154Z" transform="translate(-60.57 -102.69)" style="fill:#ee3232;fill-rule:evenodd"/><path d="M115.51,223.56a7.17,7.17,0,0,0-.3.69c0,.19,0,.55-.12.7s-.83,0-1.13.25-1.13,1-1.56.84-.27-.23-.45-.41-.38.09-.51,0-.37-.57-.45-.65c-.54-.53-2-2.3-1.71-3.24.07-.2.51-.4.65-.62.39-.63,1-1.06,1.35-1.72a2.53,2.53,0,0,1,.73-1c.29-.19.86.12,1.18.47l.2-.07c.16,0,.31-.28.46-.29.68-.07,2,1.11,2.38,1.51,0,.05.36.26.45.34a.66.66,0,0,1,.89,0c.15.13.36.66.53.88.48.58.87,1.36,1.37,1.91a4.64,4.64,0,0,1,.75,1,1.32,1.32,0,0,1-.25,1.39l.1,0c0,.16-.11.81-.31.64s-.43-.6-.54-.4-.49.36-.74.52-.53.79-.88.64c-.17-.07-.39-.42-.58-.53s-.36-.14-.48-.3-.14-.94-.36-1.33A11.52,11.52,0,0,1,115.51,223.56Zm17-3.88a.12.12,0,0,0-.05-.14c-.13-.09-.49-.33-.4-.51s.14-.14.25-.24,0-.14,0-.2.34-.22.39-.27c.31-.28,1.37-1.13,1.88-1.12.11,0,.2.15.32.18.34.07.55.26.9.31a1,1,0,0,1,.5.16c.13.12-.25.54-.49.66l.09,0c-.06.07-.25.37-.4.37s-.29-.1-.43,0a5.29,5.29,0,0,1-.77.48,3.13,3.13,0,0,0-.32.22,3.1,3.1,0,0,0,.53-.1,2.52,2.52,0,0,1,1.15-.16c.17-.43.45-.75.88-.63.19.06.61.45.86.57.69.32,1.37.86,2.06,1.14a4.33,4.33,0,0,1,1.13.61,1.31,1.31,0,0,1,.36,1.36l.1,0c.05.16.25.78,0,.71s-.64-.35-.65-.12-.29.52-.45.78-.14.94-.52,1c-.19,0-.53-.21-.75-.23a1.39,1.39,0,0,1-.56-.07c-.3-.17-.54-.78-.9-1a6.84,6.84,0,0,1-1.6-1.39.28.28,0,0,0-.06.16,5.32,5.32,0,0,1-.44,1.46c-.15.48-.12,1.4-.51,1.75-.19.18-.56.18-.79.34s-.4.38-.58.4-.58-.6-1-.63-1.47-.14-1.7-.53,0-.36,0-.61-.34-.2-.38-.34.14-.66.14-.78c0-.75.21-3.07,1.12-3.48.2-.09.64.08.9,0Zm-37-3.84c0-.15.1-.31,0-.42s-.53-.76-.37-1,.22-.15.39-.24,0-.24.06-.31.49-.18.57-.23c.49-.28,2.08-1.06,2.73-.78.14.06.22.34.36.44.41.29.63.68,1.06,1a1.51,1.51,0,0,1,.6.51c.12.25-.48.71-.82.78h.11c-.09.09-.42.45-.61.37s-.34-.29-.55-.17a5.71,5.71,0,0,1-1.13.34c-.37.11-1,.47-1.36.42l-.06,0a.67.67,0,0,1,.1.23c0,.17-.17.53-.16.76a4.9,4.9,0,0,1,0,.54,2.77,2.77,0,0,0,.63-.26c.57-.47,1.28-.67,1.83-1.18a2.64,2.64,0,0,1,1-.67c.44-.11,1,.73,1.06,1.19l.05-.15c.13.13.63.63.45.85s-.57.38-.43.67a5.61,5.61,0,0,1,.26,1.5c.08.49.51,1.3.32,1.79-.09.24-.42.41-.55.66s-.19.51-.34.61-.79-.27-1.15-.13-1.38.55-1.75.3-.18-.32-.29-.54-.39,0-.49-.14-.17-.66-.22-.76a10.61,10.61,0,0,1-.56-1.45h0c-.14.36-1,.41-1.27.22l.07.1c-.14,0-.7.17-.76-.06s0-.57-.2-.6a3.88,3.88,0,0,1-1.08-.49c-.35-.16-1.08-.21-1.29-.57-.11-.17-.05-.48-.15-.68s-.23-.37-.21-.52.56-.44.64-.76.34-1.22.68-1.37.29,0,.48,0,.22-.26.33-.29.5.18.59.19A6.76,6.76,0,0,1,95.44,215.84Zm20.09,6.68a1.32,1.32,0,0,1-.39.06l.2.3c0-.24.11-.2.19-.35Zm35.57-7.12c-.1-.12-.19-.26-.33-.27s-.92,0-1-.29,0-.27,0-.46-.19-.13-.21-.23.14-.51.15-.59c.06-.57.37-2.31,1-2.67.13-.08.4,0,.57,0,.47-.16.92-.11,1.39-.3a1.55,1.55,0,0,1,.77-.18c.27,0,.29.8.14,1.12l.08-.09c0,.13.11.62-.06.72s-.44.1-.47.34a5.75,5.75,0,0,1-.39,1.12c-.13.36-.19,1-.46,1.34l0,0a.64.64,0,0,1,.24.05c.17.07.33.45.52.58l.13.1a2.54,2.54,0,0,0,.18-.58c0-.7.31-1.37.3-2.07a2.59,2.59,0,0,1,.14-1.13c.18-.41,1.09-.49,1.39-.28l-.07-.11c.17,0,.78-.21.82.05s-.08.65.19.68a3.66,3.66,0,0,1,1.14.52c.37.17,1.16.22,1.37.61.1.2,0,.54.1.77s.24.4.21.58-.64.5-.76.87-.45,1.38-.83,1.56-.31,0-.52,0-.25.29-.37.33a5.7,5.7,0,0,1-.63-.2,7.17,7.17,0,0,1-.95-.16,1.38,1.38,0,0,1,.31.33c.21.33-.24,1-.57,1.16h.12c-.06.14-.28.67-.49.58s-.44-.37-.61-.19a3.71,3.71,0,0,1-1,.58c-.34.19-.81.75-1.23.71-.2,0-.41-.24-.63-.29s-.43,0-.55-.13,0-.71-.23-1-.79-1-.71-1.36.18-.22.31-.37-.08-.32,0-.43.43-.3.49-.37A6.57,6.57,0,0,1,151.1,215.4ZM79.73,204.59c-.37.14-1.31.47-1.64.21s-.16-.32-.25-.55-.37-.05-.46-.15a7.29,7.29,0,0,1-.18-.77c-.3-.69-1-2.88-.4-3.64.13-.16.59-.19.79-.35.56-.44,1.24-.62,1.78-1.1a2.43,2.43,0,0,1,1-.63c.42-.1,1,.77,1,1.22l0-.14c.12.14.58.65.4.86s-.56.36-.44.66a5.28,5.28,0,0,1,.19,1.5c.06.5.44,1.33.24,1.81-.1.24-.41.39-.54.63a3.52,3.52,0,0,0-.15.33,1.2,1.2,0,0,1,.3.2l-.08-.14a3.29,3.29,0,0,1,.56.09,1,1,0,0,0,.22-.48c0-.36.07-1.41.38-1.68s.27-.08.47-.12.15-.35.26-.41a4.22,4.22,0,0,1,.61,0c.58-.13,2.38-.32,2.72.47.07.17,0,.62,0,.85.14.65,0,1.36.22,2a2.64,2.64,0,0,1,.14,1.09c-.07.43-.86.76-1.18.65l.08.08c-.13.08-.65.41-.74.18s-.08-.63-.33-.58a2.65,2.65,0,0,1-1.07-.15l.1.08c.42.32,1.31.65,1.55,1.14.12.24,0,.56.14.83a2.09,2.09,0,0,1,.24.67c0,.29-.71.28-.83.61s-.48,1.27-.9,1.31-.35-.12-.59-.22-.28.22-.41.2-.6-.38-.71-.43c-.72-.29-2.88-1.37-3.06-2.35,0-.21.23-.54.24-.79,0-.7.32-1.3.29-2A2.69,2.69,0,0,1,79.73,204.59Zm88.32-4.9c.1-.13.2-.26.16-.4-.07-.3-.27-1.15,0-1.37s.34-.06.58-.1.11-.28.23-.33.67,0,.78,0c.72-.1,3-.26,3.63.38.14.14.09.5.22.69.35.53.42,1.11.81,1.63a1.88,1.88,0,0,1,.46.88c0,.35-.9.61-1.35.52l.14.07c-.16.07-.73.33-.91.15s-.27-.51-.58-.47a3.43,3.43,0,0,1-.95-.06c.59.52,1.11,1.15,1.06,1.68,0,.21-.39.52-.47.77-.21.71-.69,1.27-.86,2a2.6,2.6,0,0,1-.46,1.11c-.3.33-1.27,0-1.54-.4l0,.15c-.17,0-.87-.17-.84-.46s.26-.63,0-.79a5.24,5.24,0,0,1-1-1.1c-.34-.37-1.16-.8-1.27-1.32-.06-.25.12-.57.09-.85s-.13-.53-.05-.7.8-.21,1-.53A3.9,3.9,0,0,1,168.05,199.69Zm-54.68,2.62c-.31-.16-.75-.76-.57-.95a1.53,1.53,0,0,1,.7-.29c.48-.11.79-.41,1.25-.55.16-.05.31-.28.46-.29.68-.07,2,1.11,2.38,1.51.06.06.45.31.48.37s-.09.22,0,.3.25.15.3.33-.43.67-.61.81,0,.55-.18.63a1.49,1.49,0,0,1-.51,0c-.2,0-.39.09-.58.06-.39-.07-.85-.57-1.18-.77a6.37,6.37,0,0,1-1-.64c-.17-.17-.45,0-.56,0s-.43-.41-.49-.52Zm-4.22,1.41a1.3,1.3,0,0,0,1.41,0,4.62,4.62,0,0,0,.85-1c.43-.61,1.11-1.15,1.58-1.74.17-.22.65-.54.75-.71.45-.79-1-1.38-1.53-1.52-.08,0-.35-.26-.43-.26s-.45.26-.54.23-.15-.16-.44-.1a6.79,6.79,0,0,0-1.74,1.23c-.33.3-1,.39-1.22.64a1.48,1.48,0,0,0-.19.53c-.07.21-.36.5-.4.68-.06.37.6.52.81.73s.32.51.67.61-.2.49-.27.61.52.17.68.17ZM135,201.14c0,.46.35,1.35.68,1.28a1.88,1.88,0,0,0,.81-.58c.46-.45,1-.59,1.49-1,.17-.15.53-.15.65-.31.55-.72.12-2.95-.07-3.65,0-.11-.05-.71-.09-.78s-.32,0-.35-.18,0-.38-.17-.56-1.06,0-1.34.13-.63-.37-.85-.23-.23.42-.31.58-.39.37-.48.6a5.6,5.6,0,0,0,.07,1.82,6.84,6.84,0,0,0,.05,1.51c.08.3-.3.51-.39.63s.17.74.26.89ZM117.23,200a1.32,1.32,0,0,0,1.27-.82,3.85,3.85,0,0,0,0-1.31c-.09-.77.09-1.62,0-2.41,0-.28.17-.82.12-1-.24-.94-2.07-.65-2.67-.48-.1,0-.54,0-.61,0s-.21.47-.32.5-.27-.06-.49.16a5.48,5.48,0,0,0-.6,2c-.07.45-.6.89-.61,1.24s.19.42.26.57.07.64.18.82c.24.36,1,.13,1.35.19a2.66,2.66,0,0,0,1.12.17c.26-.07.21.53.25.68s.63-.14.77-.24Zm23.46-5.54c.33,0,.8.32,1.2.32H142c.21,0,.62,0,1,0h0a2.39,2.39,0,0,1,1.07.17c.26.16.16.26.26.44s.46.1.56.19.11.5.16.59c.3.54,1,2.26.14,2.71-.18.09-.76,0-1,.12-.75.23-1.62.25-2.35.51a3.53,3.53,0,0,1-1.26.3h0a1.29,1.29,0,0,1-1.09-1h0l-.08.1c-.13-.12-.66-.57-.41-.7s.73-.17.61-.4a2.69,2.69,0,0,1-.1-1.13c0-.37-.42-1-.12-1.35.15-.16.56-.22.75-.37s.29-.34.49-.38Zm-1.73.69c.32.07,1-.26,1.07-.65a2.39,2.39,0,0,0-.23-1c-.22-.57-.2-1.21-.38-1.79-.07-.21,0-.62-.08-.77-.39-.69-2.08-.41-2.63-.27-.08,0-.52,0-.58,0s-.11.36-.21.38-.27,0-.44.14-.22,1.2-.21,1.53-.41.68-.36.94.25.31.35.42.18.47.32.59c.3.27,1,.07,1.32.1a3.18,3.18,0,0,0,1.1.09c.23-.06.3.39.36.5s.57-.13.69-.2ZM92.25,182.87a5.13,5.13,0,0,1,.13-.66,2.47,2.47,0,0,1,.11-.36,1.75,1.75,0,0,1,.13-.28.85.85,0,0,1,.14-.19.34.34,0,0,1,.09-.08s0,0,.07,0l.11,0h.18l.13,0h0l0,0,0,0,.23-.08c.24-.07.48-.11.71-.18l.26-.11.19-.1a2.21,2.21,0,0,1,.35-.16l.21,0h.08l.06,0,.06.06.06.1,0,.05a.86.86,0,0,1,.06.23,1.43,1.43,0,0,1,0,.29,1.64,1.64,0,0,1,0,.23.64.64,0,0,1,0,.07v0h0a.36.36,0,0,1,.07-.1h0v0a.5.5,0,0,1,0,.13l0,.2a.86.86,0,0,1,0,.16.38.38,0,0,1,0,.15l-.08,0-.09,0,0,0,0,0a.38.38,0,0,0-.19.22v.08s0,.06,0,.09,0,.21,0,.31-.1.32-.15.48,0,.18-.07.27l0,.17c0,.24,0,.49-.1.73l-.06.23a1.51,1.51,0,0,1-.09.18.39.39,0,0,1-.08.1l-.17.11a.85.85,0,0,0-.25.17.52.52,0,0,0-.1.11l-.12.15a1.27,1.27,0,0,1-.12.1l0,0h0a.21.21,0,0,1-.14-.07h0c-.07-.07-.13-.14-.2-.2a.28.28,0,0,0-.15-.08h-.68a1.1,1.1,0,0,1-.26-.06.29.29,0,0,1-.13-.08.42.42,0,0,1-.06-.08.44.44,0,0,1,0-.1.11.11,0,0,1,0-.08c0-.06,0-.12,0-.19v-.08s0-.05,0-.06l0,0h-.06l0,0a.09.09,0,0,1-.06-.06v0a.17.17,0,0,1,0-.07,1.85,1.85,0,0,1,0-.23.78.78,0,0,1,0-.14s0-.07,0-.1V184a1.55,1.55,0,0,1,0-.22h0c-.2,0-.39.09-.35.25a2.7,2.7,0,0,1-.15,1.19c-.06.38.19,1.15-.17,1.43-.18.13-.6.11-.82.23s-.17.12-.27.18l.14.09c.1.05.23-.15.34-.13a4.85,4.85,0,0,1,.49.37c.52.25,2.05,1.18,2.09,1.93,0,.16-.23.4-.26.59-.09.54-.37,1-.42,1.52a1.84,1.84,0,0,1-.22.84c-.18.26-.93,0-1.16-.25l0,.11c-.14,0-.66-.11-.67-.32s.13-.48-.09-.59a4.66,4.66,0,0,1-.88-.79c-.29-.27-.93-.56-1.06-.95-.07-.18,0-.42,0-.63s-.16-.4-.12-.52.57-.18.69-.43a3.4,3.4,0,0,1,.53-.79c-.3-.14-.65-.47-1-.51a5.08,5.08,0,0,1-2.08-.53c-.22-.22-.1-.3-.16-.51s-.44-.19-.52-.31,0-.54,0-.64c-.18-.63-.5-2.55.45-2.84.21-.06.76.1,1,.07.79-.09,1.66.06,2.43-.07a3.65,3.65,0,0,1,1.33-.06,1.32,1.32,0,0,1,.84,1.3l.08-.07Zm-21.57,6.28c.3-.11.68-.79.48-1.12a2.38,2.38,0,0,0-.73-.65c-.49-.33-.83-.85-1.31-1.21-.17-.13-.33-.5-.49-.57-.69-.34-1.87.84-2.22,1.26a5.2,5.2,0,0,0-.44.35c0,.1.12.34,0,.42s-.23.12-.27.35.51,1.1.7,1.35.06.77.25.95.37.11.5.14.41.28.59.3c.38,0,.79-.49,1.1-.66a3.35,3.35,0,0,0,.91-.55c.15-.18.45.14.56.2s.38-.42.43-.55Zm109.66-4.78c-.76-.37-1.76-1.21-2.29-1.52-.16-.1-.16-.35-.31-.48-.41-.36-.55-.75-1-1.1-.23-.18-.51-.39-.58-.6s.82-.47,1.27-.43l-.14,0c.15,0,.68-.26.89-.14s.32.35.62.3a9.62,9.62,0,0,1,1.51,0,7.37,7.37,0,0,1,1.82,0c.23.08.36.27.6.36a2.41,2.41,0,0,1,.58.26c.14.16-.35.38-.24.59s.42.79.14,1-.33.05-.56.09-.07.2-.18.24-.42.46-.78.88a1.72,1.72,0,0,1,.81-.34c.32,0,.44.95.3,1.38l.08-.13c0,.16.21.75,0,.92s-.5.22-.5.52a8,8,0,0,1-.32,1.48,6.06,6.06,0,0,1-.37,1.78c-.14.21-.41.28-.58.48s-.29.45-.42.5-.43-.46-.71-.41-1.08.17-1.24-.16,0-.34,0-.58-.24-.13-.27-.25.1-.66.1-.77c0-.72.15-3,.81-3.56.15-.13.48,0,.67-.16Zm-19.84-.12a.08.08,0,0,0-.08-.07c-.29,0-.47-.25-.7-.38s-.77-.14-.84-.44c0-.14.1-.41.08-.58a1,1,0,0,1,0-.43c.09-.24.55-.4.7-.68a3.73,3.73,0,0,1,.89-1.22c.19-.09.21,0,.36,0s.23-.23.32-.26a4,4,0,0,1,.41.14c.43,0,1.71.26,1.64.94,0,.14-.27.46-.33.65-.16.53-.48,1-.61,1.58a2.56,2.56,0,0,1-.32.87.66.66,0,0,1-.34.24,1.8,1.8,0,0,1,.68.29c.31.23.14,1.05-.12,1.28l.11,0c0,.15,0,.72-.26.71s-.55-.19-.64,0a3.84,3.84,0,0,1-.76.91c-.25.29-.5,1-.9,1.09-.19,0-.47-.08-.69-.05s-.42.13-.56.07-.27-.66-.56-.83-1.08-.65-1.14-1,.09-.27.16-.46-.19-.28-.18-.39.3-.43.33-.52c.22-.55,1-2.18,1.86-2.14.18,0,.47.31.69.36A6,6,0,0,1,160.5,184.25Zm-84.8,2.44c.3-.11.68-.79.48-1.11a2.4,2.4,0,0,0-.73-.66c-.49-.32-.83-.85-1.31-1.21-.17-.13-.34-.5-.49-.57-.69-.34-1.87.84-2.22,1.26-.05.07-.41.28-.44.35s.12.34.05.42-.23.12-.27.36.5,1.09.7,1.34.06.77.25.95.37.11.5.14.41.28.59.3c.38,0,.79-.49,1.09-.66a3.17,3.17,0,0,0,.92-.55c.15-.18.45.14.56.2s.38-.42.43-.55Zm-5.43-7.09c0-.45-.54-1.32-1-1.22a2.36,2.36,0,0,0-1,.63c-.54.48-1.22.66-1.78,1.1-.21.16-.66.19-.79.35-.63.76.1,2.95.39,3.64,0,.11.13.7.19.77s.4,0,.45.16,0,.37.26.55,1.33-.1,1.67-.23.82.34,1.08.18.26-.44.35-.6.45-.4.55-.63c.2-.49-.18-1.32-.24-1.81a5.68,5.68,0,0,0-.19-1.51c-.12-.3.33-.53.43-.65s-.28-.73-.39-.87Zm43.61-.49h-.06c-.62-.11-1.08-.45-1.72-.52a1.92,1.92,0,0,1-.95-.27c-.27-.22.19-1.07.56-1.33l-.14.05c.06-.15.26-.75.52-.76s.55.16.73-.09a7.46,7.46,0,0,1,1.15-1c.38-.33.88-1.05,1.37-1.2.24-.07.5,0,.76,0s.51-.17.65-.12.09.65.35.8,1,.59,1,1-.19.29-.33.48.13.27.08.39-.7,1.83-.79,1.91a4.07,4.07,0,0,1-1.48.81,2.26,2.26,0,0,0,.14.36c.35.63,1,.38,1.34,1a19.23,19.23,0,0,1,.15,2.13c.15.48-.17,1.2-.39,1.25l.08,0c0,.15-.2.74-.35.55s-.3-.62-.42-.45-.47.25-.71.37-.57.64-.86.45-.29-.46-.44-.59-.3-.19-.38-.36,0-.9-.15-1.3c-.08-.2-.22-.59-.33-1-.18.05-.66.21-.85.09s-.31-.36-.61-.34a9.85,9.85,0,0,1-1.51-.09,7.73,7.73,0,0,1-1.81-.12c-.23-.08-.35-.28-.58-.39a2.16,2.16,0,0,1-.57-.28c-.14-.16.36-.36.26-.57s-.38-.81-.09-1,.33,0,.56-.07.08-.19.19-.23.67,0,.78,0c.7-.07,2.94-.17,3.63.28.15.1.14.35.29.49a2.41,2.41,0,0,1,.33.4.31.31,0,0,1,0-.1c0-.07.3-.22.35-.28A2.39,2.39,0,0,1,113.88,179.11Zm39.92,2.33c-.37.26-.83,1.11-.56,1.33a2,2,0,0,0,1,.26c.64.07,1.1.41,1.72.52.22,0,.45.32.65.31.9,0,2.36-1.76,2.78-2.35.07-.09.52-.48.55-.56s-.16-.28-.08-.39.29-.24.33-.48-.69-.81-1-1-.1-.72-.35-.8-.48.08-.65.12-.53-.07-.77,0c-.48.14-1,.87-1.36,1.19a7,7,0,0,0-1.15,1c-.18.25-.58.09-.73.09s-.47.6-.53.76Zm-40.6.19h-.09Zm71.15-1.77c.35,0,1-.5.94-.88a2.13,2.13,0,0,0-.49-.88c-.38-.49-.52-1.11-.86-1.62-.13-.18-.15-.59-.28-.72-.59-.57-2.28.11-2.81.38-.08.05-.54.12-.59.17s0,.37-.12.42-.29,0-.42.24.08,1.21.18,1.52-.25.75-.13,1,.34.23.47.31.31.41.49.5c.38.18,1-.18,1.4-.23a4,4,0,0,0,1.16-.18c.23-.12.41.3.51.39s.56-.26.67-.36Zm-41.13-8.68c.14-.32.72-.8.91-.63a1.39,1.39,0,0,1,.33.69c.14.47.45.77.61,1.22.06.16.3.29.32.44.1.69-1,2-1.39,2.46-.06.06-.29.46-.35.49s-.23-.08-.3,0-.14.25-.31.32-.7-.4-.84-.57-.55,0-.65-.15a1.47,1.47,0,0,1,0-.51c0-.2-.12-.39-.1-.58,0-.39.53-.88.72-1.21a5.25,5.25,0,0,1,.59-1c.16-.18,0-.46,0-.57s.39-.44.5-.51Zm.74-1.07c-.49.55-1.14,1-1.57,1.61a4.22,4.22,0,0,1-.9.95,1.3,1.3,0,0,1-1.49-.27v.12c-.18,0-.86-.11-.73-.35s.52-.55.29-.67-.48-.59-.71-.89-.92-.63-.85-1.06c0-.21.34-.49.42-.72s.06-.45.2-.59.94-.21,1.29-.49a5.14,5.14,0,0,1,1.84-1.08c.3,0,.28.12.46.22s.44-.18.57-.16.37.37.46.41a5.14,5.14,0,0,1,1.06.76l.3-.24c.21-.2.45-.7.77-.75.15,0,.35.1.52.1s.32-.06.42,0,.15.52.35.67.77.59.78.88-.09.19-.16.33.13.22.11.31-.23,1.33-.28,1.38a1.92,1.92,0,0,1-1.59.43c-.13,0-.33-.27-.49-.33C144.65,170.53,144.33,170.27,144,170.11Zm-19.33-7.37a1.76,1.76,0,0,1-.41-.54c-.09-.23,0-.49-.09-.74a2.36,2.36,0,0,1-.18-.62c0-.25.61-.1.73-.36s.45-1,.81-.94.29.18.49.31.24-.12.35-.08.5.45.59.51c.6.4,2.39,1.78,2.51,2.65,0,.19-.22.42-.23.64,0,.6-.32,1.05-.32,1.67a1.74,1.74,0,0,1-.16.93c-.14.22-.75,0-1.12-.33.14.66.05,1.6.15,2.19,0,.18.75.57.75.77,0,.54-.23.91-.21,1.48a1.52,1.52,0,0,1-.09.82c-.14.21-.88-.33-1.14-.7l.06.13c-.13-.08-.64-.35-.67-.59s0-.47-.17-.67a9.48,9.48,0,0,1-.94-1.19,7.52,7.52,0,0,1-1.13-1.41c-.09-.23,0-.46-.11-.7a2.3,2.3,0,0,1-.17-.6c0-.22.51,0,.6-.2s.34-.83.65-.72.26.22.43.38.2-.08.3,0l.8.23a.48.48,0,0,0-.16-.45,7.32,7.32,0,0,1-1.06-1.09l-.22-.2a.26.26,0,0,1-.08.3l.14-.07c0,.18,0,.86-.32.89s-.65-.13-.77.16a6.2,6.2,0,0,1-.92,1.22c-.3.39-.61,1.25-1.09,1.46-.24.1-.57,0-.83.07s-.5.22-.67.18-.32-.73-.66-.88-1.29-.58-1.35-1c0-.28.11-.34.2-.58s-.22-.29-.22-.43.37-.56.42-.67c.27-.7.62-1.65,1.59-1.75.22,0,1.22-.85,1.47-.83.72.08.68,1.11,1.41,1.14a2.09,2.09,0,0,1,1,.23Zm-59,2c0-.45-.45-1.32-.79-1.23a2,2,0,0,0-.8.63c-.45.49-1,.66-1.48,1.11-.16.16-.54.18-.65.35-.52.75.09,3,.33,3.63,0,.11.1.71.15.77s.33,0,.38.16,0,.38.21.55,1.1-.1,1.38-.22.68.33.9.17.21-.44.29-.6.37-.39.45-.63c.17-.48-.15-1.31-.2-1.81a6.72,6.72,0,0,0-.16-1.51c-.1-.29.28-.53.36-.65s-.23-.73-.33-.87Zm114.1-2c.05-.24.22-.53.14-.76s-.39-1.21-.18-1.52.24-.14.42-.24,0-.33.12-.41a4.57,4.57,0,0,1,.59-.17c.53-.27,2.22-.95,2.81-.38.13.12.15.53.28.72.34.51.48,1.13.86,1.62a2.09,2.09,0,0,1,.49.87.71.71,0,0,1-.34.61c.79.12,2,.46,1.92,1.24,0,.21-.36.67-.43.94-.19.76-.63,1.52-.78,2.28a3.85,3.85,0,0,1-.41,1.24,1.3,1.3,0,0,1-1.46.39l0,.11c-.17,0-.83.27-.81,0s.24-.72,0-.73c-.41,0-.68-.33-1-.51s-1.11-.17-1.22-.59c-.06-.21.1-.59.07-.83s-.14-.43-.07-.63.76-.58,1-1a8,8,0,0,1,.89-1.48l-.48,0c-.25,0-.61.2-.94.26.07.24.17.66.07.82s-.15.09-.25.14,0,.21-.07.26-.3.07-.35.1c-.31.16-1.3.56-1.64.2-.07-.07-.08-.32-.15-.44-.2-.31-.28-.69-.49-1a1.33,1.33,0,0,1-.28-.54c0-.23.35-.53.55-.53l-.06,0c.06-.06.29-.32.39-.22s.16.31.29.25A1.32,1.32,0,0,1,179.76,162.7Zm-113.68,1s0,0,0,0,.09-.61-.15-.63a3.09,3.09,0,0,1-1-.45c-.34-.15-1.05-.17-1.23-.54-.09-.18,0-.5-.08-.71s-.2-.37-.17-.53.59-.49.71-.83.44-1.31.79-1.48.28,0,.48,0,.23-.29.34-.32.48.16.57.16c.58,0,2.32.32,2.43,1.15,0,.18-.21.57-.23.8a13.39,13.39,0,0,1-.26,1.38,1.5,1.5,0,0,1,.6-.42c.31-.08.7.65.7,1l0-.13c.08.12.42.55.29.73s-.41.31-.32.56a5.21,5.21,0,0,1,.14,1.27c0,.42.32,1.12.18,1.53-.07.2-.3.32-.4.53s-.15.43-.26.51-.54-.26-.79-.15-1,.41-1.23.19-.11-.27-.18-.47-.27,0-.34-.13-.1-.56-.13-.65A7.52,7.52,0,0,1,66.08,163.68Zm97.2-5a.27.27,0,0,1,0-.13c.09-.24.55-.4.7-.68s.58-1.07.89-1.21.21,0,.36,0,.23-.23.32-.26a3.31,3.31,0,0,1,.41.14c.43,0,1.71.26,1.64.94,0,.14-.27.46-.33.65-.16.53-.48,1.06-.61,1.58a2.56,2.56,0,0,1-.32.87.9.9,0,0,1-.64.32c.1.08.21.25.3.31.33.22.61.56.93.76a2.18,2.18,0,0,1,.52.41.66.66,0,0,1-.07.75h.06c0,.09,0,.44-.15.38s-.29-.23-.34-.11-.27.26-.41.38-.28.49-.5.47-.25-.15-.37-.18a.63.63,0,0,1-.3-.07c-.14-.12-.15-.46-.3-.62a2.73,2.73,0,0,1-.62-.87c0-.16.05-.15.09-.25s-.1-.21-.1-.27.16-.2.18-.25a2.37,2.37,0,0,1,.55-.79c-.18.05-.42.08-.4-.06s.18-.5,0-.51-.47-.25-.7-.37a.85.85,0,0,0-.23-.09s0,.07,0,.11c.14.61,0,1.16.18,1.79a2,2,0,0,1,.12,1c-.1.33-1.06.23-1.44,0l.1.11c-.17,0-.8,0-.9-.2s-.07-.56-.37-.64a7.43,7.43,0,0,1-1.35-.68c-.45-.22-1.31-.41-1.64-.8-.15-.2-.15-.49-.3-.71s-.34-.4-.36-.55.58-.33.61-.64.16-1.15.53-1.24.33.07.57.12.2-.22.33-.22.61.27.72.29A9.83,9.83,0,0,1,163.28,158.7Zm-79,0a.85.85,0,0,1-.24-.09l-.15-.08a.52.52,0,0,1-.11-.1l0,0h0a.49.49,0,0,1,0,.12s0,0,0,0h0l-.15,0-.22,0-.16-.05,0,0a.22.22,0,0,1-.1-.09v0a.13.13,0,0,1,0-.12l0,0,0,0,.13-.17.08-.12,0-.09s0,0,0-.07v0a.09.09,0,0,0,0-.06l0,0,0,0-.14-.12a3.84,3.84,0,0,1-.45-.66l-.09-.12-.11-.11-.13-.11a4.13,4.13,0,0,1-.39-.34l0-.05a.59.59,0,0,1-.14-.3v-.06a.13.13,0,0,1,0-.06.21.21,0,0,1,0-.11,1,1,0,0,1,.08-.14L82,155a1.3,1.3,0,0,0,.1-.15l0-.09a1.29,1.29,0,0,0,0-.19,1.17,1.17,0,0,1,0-.2.49.49,0,0,1,.11-.2l.13-.1a1.42,1.42,0,0,1,.31-.11,4.56,4.56,0,0,0,.53-.13.81.81,0,0,0,.32-.16l.68-.5a4.45,4.45,0,0,1,.51-.33,2.16,2.16,0,0,1,.34-.17.79.79,0,0,1,.26-.08h.08a.38.38,0,0,1,.18,0l.06,0,.08.08.07,0,0,0,0,0H86l.09,0,.26-.11.1,0h.05l0,0,.09.08.17.18.11.1,0,0,0,0,.08,0,.24.15a5.31,5.31,0,0,1,.71.54c.06.06.12.11.17.17l.13.15.09.11.06.09a1,1,0,0,1,.19.59.25.25,0,0,1,0,.08.43.43,0,0,1,0,.11l0,.09,0,.05a.52.52,0,0,1-.1.11l-.15.12-.39.29-.11.1,0,.06-.07.09-.26.27c-.29.29-.6.55-.88.84-.13.13-.26.27-.38.41l-.11.15-.1.14a3.67,3.67,0,0,1-.37.43,1.55,1.55,0,0,1-.27.24l-.09.06-.06,0-.15.06h0a.5.5,0,0,1,0,.13c.21-.14.51-.29.66-.2s.37.44.66.34a7.27,7.27,0,0,1,1.51-.17,5.59,5.59,0,0,1,1.8-.22c.24.08.4.33.64.43s.51.15.6.27-.29.59-.16.86.5,1.05.24,1.33-.32.13-.55.21,0,.29-.15.36-.66.12-.77.16c-.68.24-2.87.85-3.63.36-.16-.1-.19-.46-.36-.62-.35-.35-.53-.75-.83-1.11,0,.31-.18.63-.26,1s-.07,1.07-.31,1.38c-.12.16-.35.2-.49.35s-.25.34-.36.37-.37-.37-.61-.35-.92.08-1.06-.18,0-.27,0-.46-.21-.12-.24-.21.09-.52.09-.61c0-.56.12-2.33.69-2.76.12-.09.4,0,.56-.09.45-.21.9-.2,1.35-.44l.19-.1Zm81.07,2.19h0s0,0,0,0Zm-61.41-8.57c0-.15,0-.32-.12-.4s-.75-.54-.68-.83.17-.22.29-.36-.08-.22,0-.31.41-.33.46-.4c.37-.43,1.63-1.68,2.33-1.63.16,0,.32.25.49.3.48.14.81.44,1.31.55a1.58,1.58,0,0,1,.73.29c.19.19-.22.83-.53,1l.12,0c-.06.11-.26.56-.46.55s-.42-.17-.58,0a4.9,4.9,0,0,1-1,.69c-.31.23-.75.76-1.14.84h-.07a.58.58,0,0,1,.17.18c.1.15,0,.56.09.77a2.35,2.35,0,0,1,.14.52,2.52,2.52,0,0,0,.51-.45c.39-.62,1-1.05,1.35-1.71a2.53,2.53,0,0,1,.73-.95c.37-.25,1.22.35,1.38.77v-.15c.16.08.8.39.7.66s-.42.54-.19.77a5.33,5.33,0,0,1,.73,1.33c.24.44.91,1.07.89,1.6,0,.26-.26.52-.3.79s0,.55-.13.7-.83,0-1.13.25-1.13,1-1.56.84c-.28-.07-.27-.23-.45-.41s-.38.09-.51,0-.37-.57-.45-.65a9.07,9.07,0,0,1-1-1.19h0c0,.39-.79.71-1.13.63l.1.07c-.13.07-.61.38-.73.19s-.15-.56-.4-.51a3.9,3.9,0,0,1-1.17-.11c-.39,0-1.09.15-1.41-.12-.16-.13-.21-.44-.36-.6s-.34-.27-.38-.42.39-.59.37-.92-.08-1.27.2-1.53.27-.08.46-.12.12-.32.22-.38a6.12,6.12,0,0,1,.62,0A7.36,7.36,0,0,1,103.93,152.31Zm76.69.73c.22.24,1,.4,1.21.11a2.15,2.15,0,0,0,.31-.9c.1-.58.45-1.07.59-1.64.05-.2.33-.48.33-.65,0-.77-1.52-1.54-2.05-1.74-.08,0-.42-.31-.49-.32s-.28.22-.37.19-.21-.19-.43-.15-.81.82-1,1.09-.69.29-.78.53.05.39.08.53-.09.47,0,.66c.11.38.77.6,1,.84a3.62,3.62,0,0,0,.86.71c.23.09,0,.48,0,.6s.54.24.68.25Zm-50.09-6.49a.81.81,0,0,1-.51-.15c-.21-.2-.13-.34-.2-.58s-.38-.09-.46-.21-.06-.67-.1-.79c-.22-.72-.72-3,0-3.66.16-.14.64-.11.87-.24.64-.37,1.37-.46,2-.88a2.59,2.59,0,0,1,1.08-.49c.45,0,.91.88.86,1.33l.07-.13c.1.15.52.72.31.91s-.63.28-.54.59a5.14,5.14,0,0,1,0,1.52c0,.35.15.87.15,1.31.12-.1.28-.22.31-.26.37-.43,1.62-1.69,2.33-1.63.15,0,.31.25.49.3.47.14.81.44,1.31.55a1.48,1.48,0,0,1,.73.29c.19.19-.22.83-.53,1l.12,0c-.06.12-.26.57-.46.56s-.42-.17-.58,0a5.73,5.73,0,0,1-1,.69c-.32.23-.76.76-1.15.84-.19,0-.39-.08-.59-.06s-.41.09-.52,0,0-.52-.22-.66-.75-.55-.68-.84v0a1.39,1.39,0,0,0-.37.3c-.12.15-.27.48-.44.55s-.73-.39-1.11-.31l-.33.07h0c.44,0,1.71.27,1.64.94,0,.15-.27.47-.33.66-.15.53-.48,1.05-.61,1.58a2.64,2.64,0,0,1-.32.87.92.92,0,0,1-1,.24l0,.09c-.12,0-.59.17-.57,0s.19-.5,0-.52-.46-.24-.69-.37-.77-.14-.84-.44c0-.14.09-.41.07-.58a1.07,1.07,0,0,1,0-.44c.1-.23.55-.4.7-.68a4,4,0,0,1,.89-1.21Zm-60.65-1.82a3.58,3.58,0,0,0,0-.58c0-.14-.19-.37-.17-.54s.6-.48.71-.82.45-1.31.8-1.49.28,0,.47,0,.24-.29.35-.32.48.16.57.16c.58,0,2.32.32,2.43,1.15,0,.18-.22.57-.23.8-.05.65-.32,1.29-.32,1.93a2.61,2.61,0,0,1-.16,1.06c-.17.39-1,.49-1.28.3l.06.1c-.14,0-.71.22-.74,0s.09-.61-.15-.63a3.05,3.05,0,0,1-1-.45,5.67,5.67,0,0,1-1.09-.38l0,0a6.86,6.86,0,0,0,.65,1.11l.12.13.1.12a3,3,0,0,1,.37.51,1.46,1.46,0,0,1,.07.19l0,.09v.07a.46.46,0,0,1,0,.2.93.93,0,0,1-.18.26l-.08.09-.12.1-.17.12a1.34,1.34,0,0,1-.27.13l-.1,0h0l.13,0s0,0,0,0v0l0,0-.12.13-.14.13-.12.09a.43.43,0,0,1-.18.06.11.11,0,0,1-.08,0s0,0-.07-.06l-.07-.08-.06-.08a.82.82,0,0,0-.19-.18.25.25,0,0,0-.15,0l-.07,0,0,0a.2.2,0,0,1-.08,0,1.19,1.19,0,0,1-.32.1c-.2,0-.4.05-.6.08l-.28,0a1.59,1.59,0,0,0-.33.1l-.43.16-.29.08-.08,0a.87.87,0,0,1-.36,0,.29.29,0,0,1-.1,0,.78.78,0,0,1-.2-.16l-.17-.19a.75.75,0,0,0-.14-.12.76.76,0,0,0-.18-.09l-.24-.11-.11-.08-.06-.07a.39.39,0,0,1,0-.24.43.43,0,0,1,0-.05.14.14,0,0,1,0-.07c0-.13.07-.26.1-.38a1.13,1.13,0,0,0,0-.26s0,0,0-.06l0-.1c0-.06,0-.11-.07-.17a4,4,0,0,1-.15-.49,2.74,2.74,0,0,1-.09-.39,1,1,0,0,1,0-.3.39.39,0,0,1,0-.18l0-.09.11-.11.1-.05.09,0,.1,0,0,0,0,0a.08.08,0,0,0,0,0,.2.2,0,0,0,0-.07,1.48,1.48,0,0,0,0-.21s0-.06,0-.09l0,0h0l0,0,.12,0,.29-.08.12,0s0,0,.07,0l.59-.29a9.32,9.32,0,0,1,.88-.33,3.93,3.93,0,0,1,.76-.15,1.85,1.85,0,0,1,.47,0,1.12,1.12,0,0,1,.31.1.6.6,0,0,1,.11.06l0,0a.42.42,0,0,1,.06.08,1.12,1.12,0,0,1,0,.13l.12.34a.48.48,0,0,0,.08.16.86.86,0,0,0,.07.1l.1.15Zm108.43-1.15a2.29,2.29,0,0,1,.14-1c.12-.22.37-.33.51-.55s.23-.47.36-.54.48.4.75.31,1.06-.3,1.26,0,0,.33.08.57.26.1.31.21,0,.67,0,.79c.09.71.23,3-.36,3.63-.13.14-.46.1-.64.24-.49.36-1,.44-1.49.85a1.92,1.92,0,0,1-.81.49c-.32,0-.56-.89-.48-1.34l-.06.14,0-.1a4.42,4.42,0,0,1-1.48,1.24c-.17,0-.36-.12-.56-.1-.54.06-.93-.1-1.49,0a1.56,1.56,0,0,1-.83,0c-.23-.11.21-.92.55-1.22l-.13.07c.06-.14.27-.67.5-.74s.47,0,.64-.26a10.65,10.65,0,0,1,1.05-1.09,7.41,7.41,0,0,1,1.25-1.31c.21-.12.44-.09.67-.2A3.12,3.12,0,0,0,178.31,143.58Zm-47.43,3h-.26a.62.62,0,0,0,.16,0A.19.19,0,0,0,130.88,146.55Zm-58.31-8.07c.31-.33.53-1.33.17-1.55a2.32,2.32,0,0,0-1.13-.23c-.73,0-1.34-.38-2-.46-.26,0-.6-.32-.81-.3-1,.1-2,2.18-2.26,2.88,0,.11-.41.58-.41.67s.27.31.22.43-.24.3-.21.58c.06.43,1,.86,1.36,1s.35.81.65.88.49-.13.67-.19.59,0,.83-.06c.48-.21.79-1.07,1.09-1.46a5.51,5.51,0,0,0,.92-1.22c.12-.29.61-.14.77-.16s.31-.71.32-.89Zm77.66-3.26a4.35,4.35,0,0,1-.82-1.2c0-.22.05-.2.1-.33s-.16-.31-.16-.41.19-.26.21-.32c.13-.4.63-1.49,1.23-1.17.13.08.36.43.52.56.44.35.84.85,1.29,1.17a3.12,3.12,0,0,1,.7.63,1.06,1.06,0,0,1,.11.85.24.24,0,0,1,.15.07c.1.11.24.52.55.5a6.72,6.72,0,0,1,1.5.22,5.38,5.38,0,0,1,1.8.27c.21.13.29.41.5.57s.45.28.51.42-.44.49-.38.79.21,1.14-.11,1.34-.35,0-.59.06-.12.27-.24.32-.67-.07-.78-.06c-.72.06-3,.08-3.6-.59-.13-.15-.07-.5-.18-.7-.32-.53-.36-1.08-.7-1.61a.21.21,0,0,1-.17,0c-.14,0-.35-.23-.5-.29a6.85,6.85,0,0,0,.81,1.18,2.52,2.52,0,0,1,.6.81c.12.37-.48.95-.83,1l.12,0c-.09.11-.43.58-.62.44s-.34-.47-.55-.33a3.88,3.88,0,0,1-1.13.33c-.38.1-1,.53-1.36.39-.19-.06-.35-.33-.55-.43s-.41-.12-.5-.25.15-.7,0-1-.53-1.15-.37-1.49.23-.17.4-.28,0-.34.06-.43a6.11,6.11,0,0,1,.57-.24A4.47,4.47,0,0,1,150.23,135.22Zm-49.54,1.44a.64.64,0,0,0-.1.13c-.28.52-1.28,2-2.09,1.91-.17,0-.43-.35-.64-.43-.57-.22-1-.65-1.63-.84a2.27,2.27,0,0,1-.91-.44c-.28-.27,0-1.06.27-1.26l-.12,0c0-.15.11-.72.34-.68s.52.25.64,0,.57-.54.86-.81.6-.92,1-1c.21,0,.47.13.69.12s.43-.08.56,0,.2.69.46.89,1,.77,1,1.14-.12.26-.21.44a0,0,0,0,0,0,0h0l0-.07.06-.06a.31.31,0,0,1,.1-.05l.09,0h.23l0,0s0,0,0,0a.21.21,0,0,0,0-.06,1.27,1.27,0,0,1,.06-.18.25.25,0,0,1,0-.07l0,0h.61l.58-.1a7.34,7.34,0,0,1,.81-.05,3.78,3.78,0,0,1,.67.05,2.38,2.38,0,0,1,.38.11,1.28,1.28,0,0,1,.25.15l.1.12.05.07s0,.06,0,.1a.57.57,0,0,1,0,.13v.28a1.62,1.62,0,0,0,0,.2l0,.08,0,.11a2.37,2.37,0,0,1,.09.36,9.7,9.7,0,0,0,.23,1.07l.06.14.09.23a2,2,0,0,1,.16.49.78.78,0,0,1,0,.22.49.49,0,0,1,0,.12.26.26,0,0,1-.07.15.58.58,0,0,1-.17.18l-.07,0-.09.06-.14.06-.17.06a.84.84,0,0,1-.27,0h-.14l.1.07h0l0,0-.13.08-.16.08-.14,0a.42.42,0,0,1-.16,0l-.06,0a.2.2,0,0,1,0-.08l0-.08,0-.08a1.14,1.14,0,0,0-.1-.19.26.26,0,0,0-.09-.09l-.1,0h-.29a5.05,5.05,0,0,1-.78-.11l-.21,0h-.3a3.85,3.85,0,0,1-.48,0h-.19a.65.65,0,0,1-.35-.13.67.67,0,0,1-.14-.19l-.14-.3a.86.86,0,0,0-.07-.1l-.1-.09-.15-.14a.48.48,0,0,1-.09-.11.41.41,0,0,1,0-.09.31.31,0,0,1,0-.21v0l0,0c0-.1.12-.19.17-.28a.76.76,0,0,0,.09-.18l0-.12a.57.57,0,0,0,0-.13v-.12a4.17,4.17,0,0,1,0-.5Zm75.62-4a1.28,1.28,0,0,0,.05-1.51,3.58,3.58,0,0,0-1.1-.65c-.7-.3-1.31-.88-2-1.22-.25-.13-.59-.55-.8-.61-.92-.26-1.75,1.47-2,2.08,0,.1-.34.45-.34.54s.28.4.24.51-.21.21-.15.51c.08.46,1,1.25,1.37,1.53s.39.95.68,1.13.46,0,.63.06.58.26.79.24c.45,0,.69-.79.95-1.07s.65-.5.79-.89.58.07.73.12.24-.61.24-.79Zm-73.95,1.53c-.09.32,0,1,.31,1a1.5,1.5,0,0,0,.68-.29c.41-.25.84-.26,1.25-.48.15-.08.41,0,.53-.12.51-.43.53-2.1.5-2.63,0-.09.07-.52.05-.58s-.23-.09-.23-.18,0-.27,0-.43-.78-.15-1-.12-.4-.37-.59-.3-.23.27-.32.37-.33.2-.44.35a3.85,3.85,0,0,0-.22,1.32,5.46,5.46,0,0,0-.2,1.09c0,.23-.29.32-.38.39s0,.56,0,.68ZM167,129a.88.88,0,0,1-.27-.58l-.07.1c-.13-.12-.66-.57-.41-.7s.73-.17.61-.4a2.4,2.4,0,0,1-.1-1.13c0-.37-.42-1-.12-1.36.14-.15.55-.21.74-.36s.3-.34.5-.38c.35-.08.9.34,1.34.3a5.44,5.44,0,0,1,2.13.11c.26.17.17.26.27.45s.46.09.56.18.1.51.15.6c.3.54,1,2.26.15,2.71-.19.09-.76,0-1,.12-.72.22-1.55.25-2.25.48a1.06,1.06,0,0,1,.62.3c.11.17,0,.23,0,.39s.24.14.28.23-.08.41-.08.49c0,.47-.05,1.93-.67,2.15-.14,0-.45-.08-.63-.06-.5.07-1,0-1.51.06a1.88,1.88,0,0,1-.82,0c-.31-.08-.46-.74-.34-1l-.07.07c0-.12-.23-.55,0-.61s.48,0,.47-.23a3,3,0,0,1,.26-.9c.09-.29,0-.88.31-1.08Zm-38.41-5.44a.64.64,0,0,0,.14-.15c.1-.13.2-.4.39-.49s.95.1,1.37-.06a5.25,5.25,0,0,1,2.08-.44c.3.09.23.2.38.35s.47,0,.59,0,.23.46.3.53c.43.45,1.56,1.93.85,2.58-.16.14-.72.24-1,.39-.67.41-1.51.66-2.14,1.1a3.67,3.67,0,0,1-1.16.62.47.47,0,0,1-.21,0,3.34,3.34,0,0,0-.19.38c-.16.53-.49,1.05-.61,1.58a2.82,2.82,0,0,1-.33.87.91.91,0,0,1-1,.25l0,.08c-.12,0-.59.17-.57,0s.19-.5,0-.51-.46-.25-.69-.38-.77-.14-.84-.44c0-.14.09-.41.07-.58s-.08-.3,0-.43.54-.4.69-.68a3.88,3.88,0,0,1,.89-1.22c.2-.09.22,0,.36,0s.24-.23.33-.26a.88.88,0,0,1,.26.09c.19-.13.55-.32.4-.48a1,1,0,0,1-.16-.25,1.86,1.86,0,0,0-.27.11c-.61.36-1.38.57-2,.95a3.5,3.5,0,0,1-1.06.52,1.18,1.18,0,0,1-1.2-.59l0,.1c-.14-.07-.71-.31-.52-.47s.61-.3.44-.46-.23-.59-.34-.89-.61-.73-.41-1.06c.09-.15.44-.3.57-.46s.19-.34.35-.42.87.07,1.26-.06a5.25,5.25,0,0,1,1.9-.39c.27.07.21.17.34.29s.42,0,.53,0S128.56,123.44,128.62,123.57ZM80.75,127c.06-.25.23-.56.13-.79s-.57-1.3-.32-1.65.31-.18.53-.29,0-.37.13-.47.65-.17.76-.23c.66-.33,2.81-1.19,3.6-.61.17.13.23.58.4.77.47.53.69,1.2,1.21,1.71a2.46,2.46,0,0,1,.68.93c.12.41-.71,1-1.16,1l.15,0c-.13.13-.62.62-.84.45s-.4-.53-.68-.4a5.55,5.55,0,0,1-1.49.29c-.5.08-1.3.52-1.8.34-.24-.08-.41-.38-.66-.5a2.66,2.66,0,0,1-.59-.28h0a1.08,1.08,0,0,1-.07.31.72.72,0,0,1-.09.2.65.65,0,0,1-.1.15l-.05,0h.08s0,0,0,0h0v.07l0,.11a1,1,0,0,1,0,.17.61.61,0,0,1,0,.12.15.15,0,0,1-.1.09.16.16,0,0,1-.1,0l0,0-.09,0-.06,0,0,0,0,0h0a.19.19,0,0,0-.15,0l0,0,0,0,0,.06a1,1,0,0,1-.17.18,2.8,2.8,0,0,1-.35.25l-.17.13a1,1,0,0,0-.14.15l-.12.14-.17.21-.15.14a.58.58,0,0,1-.25.12h-.07a.64.64,0,0,1-.18-.06l-.2-.1a.94.94,0,0,0-.15-.06H77.4a.82.82,0,0,1-.22,0,.24.24,0,0,1-.14,0s0,0,0,0a.26.26,0,0,1-.07-.11.87.87,0,0,1-.07-.17,2.38,2.38,0,0,0-.11-.38.72.72,0,0,0-.12-.21l-.15-.15-.28-.3A3,3,0,0,1,76,128a1.43,1.43,0,0,1-.16-.24.62.62,0,0,1-.07-.19.43.43,0,0,1,0-.11.53.53,0,0,1,0-.12l0-.06.06-.06.05-.06v0a0,0,0,0,0,0,0s0,0,0,0a.14.14,0,0,0,0-.06l-.08-.17,0-.08v0l0,0a.27.27,0,0,1,.07-.08l.15-.15.06-.07,0,0v0l0-.06.1-.17c.09-.14.19-.28.29-.41a3.87,3.87,0,0,1,.32-.37,2.43,2.43,0,0,1,.3-.26,1.35,1.35,0,0,1,.26-.15.75.75,0,0,1,.33-.07l.11,0H78l.08,0a2.36,2.36,0,0,0,.28-.12l.45-.22.22-.07h.11a.05.05,0,0,1,0,0l.07.06.1.14a1.42,1.42,0,0,1,.07.22,3.2,3.2,0,0,1,.07.33c0,.15,0,.31.07.47a2,2,0,0,0,.05.24.83.83,0,0,0,.06.21.76.76,0,0,0,.18.26l.1,0,.17.09a2.37,2.37,0,0,1,.46.32.6.6,0,0,0,.08.08l0,.06a.21.21,0,0,1,0,.06Zm1.84-4.47c.14.27.78.59,1,.39a2,2,0,0,0,.51-.72c.24-.48.67-.83.94-1.3.1-.16.42-.34.47-.49.22-.67-1-1.72-1.36-2-.07,0-.3-.38-.36-.4s-.3.13-.38.07-.13-.21-.34-.23-.92.52-1.13.72-.68.09-.83.28,0,.36-.07.49-.61,3.28-.61,3.45c0,.36,1.39.52,1.58-.51,0-.2.42.34.54.38Zm73.54-6.63a.78.78,0,0,0-.3.33c-.08.27-.33,1-.62,1.18s-.25,0-.41,0-.19.23-.29.25-.41-.16-.49-.16c-.49-.06-2-.38-2.11-1.06,0-.15.16-.46.17-.65,0-.53.22-1,.2-1.57a1.92,1.92,0,0,1,.1-.85c.13-.31.83-.35,1.07-.19l0-.08c.12,0,.6-.14.64,0s-.06.5.15.53a2.9,2.9,0,0,1,.89.42c.29.14.9.19,1.07.5.08.15,0,.41.09.58v0a3.17,3.17,0,0,0,.4-.49c.08-.17.17-.52.32-.62s.75.27,1.09.12,1.3-.56,1.66-.31.17.31.28.53.37,0,.47.13.17.66.22.76c.33.67,1.18,2.83.59,3.61-.12.17-.57.22-.77.39-.54.48-1.21.69-1.72,1.21a2.43,2.43,0,0,1-.93.67c-.41.12-1-.72-1-1.17l0,.15c-.12-.13-.61-.62-.44-.84s.54-.39.4-.68a5.54,5.54,0,0,1-.27-1.49C156.42,116.77,156.21,116.29,156.13,115.87Zm-2.39,4.58c0,.19.19.56.36.54a1,1,0,0,0,.42-.24c.23-.18.52-.24.76-.41.09-.06.28,0,.34-.12.28-.29,0-1.22-.06-1.51,0,0,0-.29-.06-.32s-.17,0-.18-.08,0-.16-.09-.24-.56,0-.7.05-.33-.16-.44-.1-.12.17-.16.24-.2.15-.25.24,0,.55,0,.76a2.21,2.21,0,0,0,0,.63c0,.12-.15.21-.2.25s.1.31.14.37Zm-53.38-7.92a1.59,1.59,0,0,1-.21-1.44l-.1.11c0-.17-.25-.83,0-1s.66-.09.67-.41a5.8,5.8,0,0,1,.46-1.45c.16-.47.16-1.39.55-1.74.19-.17.54-.18.76-.34s.39-.38.57-.4.54.59.91.61,1.41.12,1.61.51,0,.35,0,.6.31.2.35.34-.16.66-.16.77c0,.75-.29,3.05-1.17,3.47-.19.09-.61-.08-.87,0-.69.17-1.39,0-2.08.25l-.18.06a.52.52,0,0,0,.28.15c.27,0,1,.15,1.2.41s0,.23,0,.39.24.14.27.23a4.81,4.81,0,0,1-.07.49c0,.47-.05,1.93-.67,2.15-.14.05-.46-.08-.64-.06-.5.07-1,0-1.5.06a1.89,1.89,0,0,1-.82,0c-.31-.08-.46-.73-.34-1l-.07.07c0-.12-.23-.55,0-.61s.47,0,.47-.23a3,3,0,0,1,.26-.9c.05-.17.06-.43.1-.67h0a.69.69,0,0,1-.07.15l-.12.14a1.45,1.45,0,0,1-.23.19l-.3.18a1.66,1.66,0,0,1-.29.1l-.1,0h-.06l.15,0s0,0,0,0l0,0,0,0-.16.13a1.53,1.53,0,0,1-.3.19.48.48,0,0,1-.2.07l-.09,0s-.06,0-.09-.06a.3.3,0,0,0-.08-.08,1.3,1.3,0,0,0-.22-.19.31.31,0,0,0-.16-.06.24.24,0,0,0-.12,0l-.06,0-.07,0L97,114a7.5,7.5,0,0,1-.81.11l-.3,0-.21,0-.26.08c-.23.07-.47.15-.72.2a1.44,1.44,0,0,1-.41,0,.46.46,0,0,1-.21,0,.63.63,0,0,1-.24-.16,1.88,1.88,0,0,0-.36-.27l-.19-.08-.29-.1,0,0a.44.44,0,0,1-.16-.14.5.5,0,0,1,0-.21v0s0,0,0-.06l.05-.12,0-.09a.14.14,0,0,0,0-.07s0,0,0,0a.57.57,0,0,0,0-.29.41.41,0,0,0,0-.09c0-.06-.05-.11-.07-.16s-.11-.26-.16-.39l-.09-.32a2,2,0,0,1,0-.26.55.55,0,0,1,0-.18l0-.1,0-.07a.53.53,0,0,1,.12-.1.42.42,0,0,1,.14-.06,1.17,1.17,0,0,0,.2-.06h.06l0,0a.2.2,0,0,0,0-.11c0-.06,0-.12,0-.18a.13.13,0,0,1,0-.08.05.05,0,0,1,0,0l0,0,.07,0,.2-.05.24-.06.19-.05.06,0,.09,0,.5-.2q.31-.12.63-.21c.21-.07.43-.12.64-.17a5.48,5.48,0,0,1,.56-.1,3.42,3.42,0,0,1,.64,0,1,1,0,0,1,.41.11l.08,0,.06,0,.06.08.06.13.09.22a1,1,0,0,0,.07.15l0,.07,0,0,.06.07a1.55,1.55,0,0,1,.19.24c.19.25.35.52.53.78a3.9,3.9,0,0,0,.33.38l.2.19a2.81,2.81,0,0,1,.34.35,1.17,1.17,0,0,1,.17.28l0,.06s0,0,0,.06a.11.11,0,0,1,0,.08h0a.66.66,0,0,1,.19-.36A.57.57,0,0,1,100.36,112.53Zm36.52-3.44-.16-.07.1.12c-.18,0-.85.17-.95-.1s0-.66-.34-.7a5.69,5.69,0,0,1-1.4-.6c-.45-.2-1.36-.29-1.68-.71-.15-.2-.13-.55-.27-.78s-.34-.43-.34-.61.63-.48.7-.85.25-1.39.65-1.55.35,0,.6.05.23-.29.37-.31.64.22.75.23c.74.09,3,.57,3.34,1.49.08.2-.13.61-.09.86a5,5,0,0,1,0,.77h0c.19-.11.29.42.52.36a1.7,1.7,0,0,1,.79-.08.58.58,0,0,1,.17-.49c.17-.13.58-.13.79-.26s.35-.29.55-.3c.35,0,.84.47,1.28.5a5.42,5.42,0,0,1,2.09.42c.24.2.13.28.2.48s.44.16.53.27,0,.51.06.6c.22.59.67,2.39-.25,2.71-.2.06-.75-.07-1,0-.78.12-1.65,0-2.4.16a4,4,0,0,1-1.31.11,1.27,1.27,0,0,1-.78-.65,10.87,10.87,0,0,0-1,.86c-.12.13,0,.94-.15,1.06-.44.32-.86.36-1.3.73a1.65,1.65,0,0,1-.72.42c-.25,0-.27-.9-.13-1.33L136,112c0-.16-.1-.72.06-.9s.41-.24.44-.54a9.48,9.48,0,0,1,.37-1.46Zm-18.15,1.56c-.19,0-.58.12-.57.3a.94.94,0,0,0,.18.44c.16.25.18.54.32.81,0,.09,0,.28.08.35.26.31,1.21.17,1.51.11,0,0,.29,0,.33,0s0-.16.09-.17.16,0,.25-.07.06-.55,0-.7.2-.3.15-.42-.16-.14-.22-.19-.12-.21-.21-.27-.55,0-.76,0a2.17,2.17,0,0,0-.62,0c-.13,0-.2-.18-.24-.23s-.31.06-.38.1Zm-.54-.47c.44.12,1.42-.17,1.44-.6a2.44,2.44,0,0,0-.34-1.1c-.32-.65-.31-1.35-.58-2-.1-.24,0-.69-.12-.86-.56-.81-2.87-.7-3.61-.61-.11,0-.71-.07-.79,0s-.14.38-.27.4-.38-.07-.6.09-.27,1.31-.24,1.67-.55.7-.46,1,.35.37.48.5.26.54.46.69c.41.33,1.31.19,1.8.27a5.74,5.74,0,0,0,1.51.22c.31,0,.42.47.51.6s.77-.07.94-.15Zm2.15-4.87c-.44-.08-1.39.3-1.37.73a2.25,2.25,0,0,0,.44,1.06c.38.62.43,1.32.76,2,.12.23.07.68.2.85.63.75,2.92.43,3.65.26.11,0,.71,0,.79,0s.11-.4.24-.43.37,0,.58-.15.15-1.32.09-1.69.47-.74.37-1-.39-.33-.53-.45-.31-.51-.52-.65c-.44-.29-1.33-.06-1.83-.09a5.53,5.53,0,0,0-1.51-.09c-.31.07-.46-.42-.57-.54s-.76.14-.92.23Z" transform="translate(-60.57 -102.69)" style="fill:#ee3232;fill-rule:evenodd"/></svg>